<svg class="animated" id="freepik_stories-eating-chocolate" xmlns="http://www.w3.org/2000/svg" viewBox="0 0 500 500" version="1.1" xmlns:xlink="http://www.w3.org/1999/xlink" xmlns:svgjs="http://svgjs.com/svgjs"><style>svg#freepik_stories-eating-chocolate:not(.animated) .animable {opacity: 0;}svg#freepik_stories-eating-chocolate.animated #freepik--Sparkles--inject-34 {animation: 1.5s Infinite  linear floating;animation-delay: 0s;}            @keyframes floating {                0% {                    opacity: 1;                    transform: translateY(0px);                }                50% {                    transform: translateY(-10px);                }                100% {                    opacity: 1;                    transform: translateY(0px);                }            }        </style><g id="freepik--Floor--inject-34" class="animable" style="transform-origin: 248.995px 353.65px;"><path id="freepik--floor--inject-34" d="M83.59,258.15c-91.35,52.74-91.35,138.25,0,191s239.46,52.74,330.81,0,91.35-138.25,0-191S174.94,205.41,83.59,258.15Z" style="fill: rgb(245, 245, 245); transform-origin: 248.995px 353.65px;" class="animable"></path></g><g id="freepik--Shadows--inject-34" class="animable" style="transform-origin: 277.282px 383.718px;"><path id="freepik--Shadow--inject-34" d="M291.57,448.87a142.2,142.2,0,0,1,5.48-15.07,106.62,106.62,0,0,1,6.7-12.4c.77-1.26,6.56-11.52,7.75-11.3a185.33,185.33,0,0,1,43.81,14.14c9.31,4.36,18.31,9.51,28.14,12.49s20.88,3.6,30.05-1c10.38-5.24,18.19-20.42,10.86-31-5.81-8.39-14.75-10.55-24.2-12.25-11.41-2.06-23.08-3.79-34.7-3,8.88-10,19.56-17.95,29.3-27,12.78-11.87,31.06-33.69,18.19-51.57a47.4,47.4,0,0,0-8.06-8.08c-13.71-11.7-38.44-12.7-55.61-13.46-20.86-.91-41.7,1-62.46,2.74a461,461,0,0,0-88,16.25c-12.14,3.49-32,8.77-38.86,20.67-12.41,21.55,28.45,42.84,43.07,48.86,10.48,4.32,21.51,7,32.36,10.2a170.09,170.09,0,0,1,16.26,5.54c3.8,1.55,9.41,4,10.5,8.39a10.26,10.26,0,0,1-.2,5.1c-1.11,4.18-3.75,7.74-5.74,11.57-7.42,14.31-8.26,36.2.06,50.3,5.79,9.81,19.17,13.43,26.53,3.11,2.31-3.25,3.6-7.1,4.88-10.88C289,457.17,290.26,453,291.57,448.87Z" style="fill: rgb(224, 224, 224); transform-origin: 292.44px 383.718px;" class="animable"></path><polygon id="freepik--shadow--inject-34" points="242.99 435.25 202.37 458.7 127.33 415.35 167.95 391.9 242.99 435.25" style="fill: rgb(224, 224, 224); transform-origin: 185.16px 425.3px;" class="animable"></polygon></g><g id="freepik--plants-2--inject-34" class="animable" style="transform-origin: 448.289px 266.014px;"><g id="freepik--Plants--inject-34" class="animable" style="transform-origin: 448.289px 266.014px;"><path d="M428.08,321.53,414,313.39s-8.39-34.82-5.05-66.16c4.7-44.06,33.7-60.63,44.73-56.83s14.22,16.62-4,42.85C438.89,248.74,425.66,281,428.08,321.53Z" style="fill: rgb(0, 255, 136); transform-origin: 435.408px 255.702px;" id="elr5tl9uj5g0h" class="animable"></path><g id="elep3u0zqn2w"><g style="opacity: 0.65; transform-origin: 435.408px 255.702px;" class="animable"><path d="M428.08,321.53,414,313.39s-8.39-34.82-5.05-66.16c4.7-44.06,33.7-60.63,44.73-56.83s14.22,16.62-4,42.85C438.89,248.74,425.66,281,428.08,321.53Z" style="fill: rgb(255, 255, 255); transform-origin: 435.408px 255.702px;" id="elj636cj4oid" class="animable"></path></g></g><path d="M422.24,304.42l.14,0a1,1,0,0,0,.77-1.14c-7.72-40.63,6.48-86.3,24.06-105.3a1,1,0,1,0-1.44-1.32c-17.89,19.34-32.37,65.75-24.53,107A1,1,0,0,0,422.24,304.42Z" style="fill: rgb(255, 255, 255); transform-origin: 433.347px 250.291px;" id="elm0wpwx8qx6b" class="animable"></path><path d="M463.52,342c2.1,1.07,7.7-3.72,9.25-4.88a19.59,19.59,0,0,0,6.12-7.78A18.37,18.37,0,0,0,480,318.27a43.23,43.23,0,0,0-1.68-5.77l-1.92-5.59a14.34,14.34,0,0,1-1.12-5.67c.3-3.9,3.61-6.79,6.62-9.29,3.32-2.77,6.75-6.37,6.5-11-.2-3.6-2.23-6.85-4.61-9.57s-5.14-5.07-7.31-8a11.43,11.43,0,0,1-2.71-7.13,11.79,11.79,0,0,1,1.35-4.61c1.49-3.12,3.52-6,4.5-9.34s.6-7.37-2.06-9.58c-2.19-1.81-5.31-1.92-8.13-1.59a18.5,18.5,0,0,0-7.34,3c-7.2,4.49-11,13.48-18.69,17-3,1.38-6.28,1.82-9.4,2.81s-6.26,2.77-7.58,5.77c-2.59,5.91,3.12,12.74,1.4,19-1.52,5.51-6.68,7.85-9.38,12.88a11.56,11.56,0,0,0-1,7.15A34.22,34.22,0,0,0,421,310.59c1.87,3.79,7.12,10.94,7.12,10.94S463.2,341.83,463.52,342Z" style="fill: rgb(0, 255, 136); transform-origin: 452.835px 286.569px;" id="el8sk0cnrq1l4" class="animable"></path><g id="elqezrppytzgp"><g style="opacity: 0.3; transform-origin: 452.835px 286.569px;" class="animable"><path d="M463.52,342c2.1,1.07,7.7-3.72,9.25-4.88a19.59,19.59,0,0,0,6.12-7.78A18.37,18.37,0,0,0,480,318.27a43.23,43.23,0,0,0-1.68-5.77l-1.92-5.59a14.34,14.34,0,0,1-1.12-5.67c.3-3.9,3.61-6.79,6.62-9.29,3.32-2.77,6.75-6.37,6.5-11-.2-3.6-2.23-6.85-4.61-9.57s-5.14-5.07-7.31-8a11.43,11.43,0,0,1-2.71-7.13,11.79,11.79,0,0,1,1.35-4.61c1.49-3.12,3.52-6,4.5-9.34s.6-7.37-2.06-9.58c-2.19-1.81-5.31-1.92-8.13-1.59a18.5,18.5,0,0,0-7.34,3c-7.2,4.49-11,13.48-18.69,17-3,1.38-6.28,1.82-9.4,2.81s-6.26,2.77-7.58,5.77c-2.59,5.91,3.12,12.74,1.4,19-1.52,5.51-6.68,7.85-9.38,12.88a11.56,11.56,0,0,0-1,7.15A34.22,34.22,0,0,0,421,310.59c1.87,3.79,7.12,10.94,7.12,10.94S463.2,341.83,463.52,342Z" style="fill: rgb(255, 255, 255); transform-origin: 452.835px 286.569px;" id="elowfue543vrq" class="animable"></path></g></g><path d="M443.13,331.37h0a.92.92,0,0,0,.85-1c-3.37-36.55,11.84-77.86,23.8-90.24a.91.91,0,0,0,0-1.3.92.92,0,0,0-1.31,0c-12.19,12.63-27.73,54.62-24.31,91.69A.93.93,0,0,0,443.13,331.37Z" style="fill: rgb(255, 255, 255); transform-origin: 454.866px 284.964px;" id="elsexklltpym8" class="animable"></path><path d="M446.76,286.3a.63.63,0,0,0,.27-.06c11.59-4.23,26.22-5.61,26.37-5.62a.92.92,0,0,0,.83-1,.89.89,0,0,0-1-.83c-.15,0-15,1.42-26.83,5.73a.92.92,0,0,0,.36,1.79Z" style="fill: rgb(255, 255, 255); transform-origin: 460.003px 282.548px;" id="el8zobdns1o55" class="animable"></path></g></g><g id="freepik--Cushions--inject-34" class="animable" style="transform-origin: 233.186px 255.179px;"><g id="freepik--Cushion--inject-34" class="animable" style="transform-origin: 320.161px 237.193px;"><path d="M259.33,157.94c8.23-4.77,19.86,1.93,37.41,2.44,32.69,1,58.44,8,77.49,16.85s22.64,4.28,30.55,11.6-.86,16,0,31.09c1.35,25.48-2.57,44.78-9.42,58.76-12.11,24.68-4.13,34.43-13,38.31-9.42,4.14-12.39-4.2-29.7-3.25-40.95,2.27-69-3.89-95.9-20.4-10.5-6.45-18.15-2-23.75-10.33-2.79-4.14,2.65-9.52,2.15-26.28-.83-27.86,4.84-56.92,14.91-75.25C254.45,173.49,251,162.79,259.33,157.94Z" style="fill: rgb(0, 255, 136); transform-origin: 320.161px 237.193px;" id="elpjcpht7pj6r" class="animable"></path><g id="el7r7av74crrs"><path d="M259.33,157.94c8.23-4.77,19.86,1.93,37.41,2.44,32.69,1,58.44,8,77.49,16.85s22.64,4.28,30.55,11.6-.86,16,0,31.09c1.35,25.48-2.57,44.78-9.42,58.76-12.11,24.68-4.13,34.43-13,38.31-9.42,4.14-12.39-4.2-29.7-3.25-40.95,2.27-69-3.89-95.9-20.4-10.5-6.45-18.15-2-23.75-10.33-2.79-4.14,2.65-9.52,2.15-26.28-.83-27.86,4.84-56.92,14.91-75.25C254.45,173.49,251,162.79,259.33,157.94Z" style="opacity: 0.3; transform-origin: 320.161px 237.193px;" class="animable"></path></g><g id="elemqxy2mtwxb"><path d="M402.14,208.21c-2.63,13.76,3.07,23.72-3.37,49.75-6.18,25-14.36,34.93-15,45.17-.5,8.5-4,13.95-8.81,6.46s-8.92-33.32-3.19-59.6c6.6-30.28,13.43-43.82,19.2-50.44C400.05,189.17,404.21,197.39,402.14,208.21Z" style="opacity: 0.2; transform-origin: 385.82px 253.954px;" class="animable"></path></g><g id="elnlmqq4245l"><path d="M307.21,311.66c12.54,2.51,26.79,3.11,45.44,2.08,9.23-.51,14.38,1.63,18.61,3.1-7.81-4.39-12.09-12.72-23.2-11.68C340,305.91,322.45,312.56,307.21,311.66Zm-72.69-26.79c5.43,5.72,12.64,2.58,22.23,8.47a147.51,147.51,0,0,0,26.54,13.34c-11.44-6.16-15.27-16.18-23.71-19C249.42,284.36,242.81,289.16,234.52,284.87Z" style="opacity: 0.2; transform-origin: 302.89px 300.855px;" class="animable"></path></g><g id="elpcy1dhv0h4"><path d="M280.72,173.24c22.24-5.47,52-5.29,73.28,4.08,4.09,2,11.43,7.3,13,11.88,1.93,5.78,1.47,11.45-2.39,16.74-3.58,4.9-10.63,8.11-16,9.75-11.23,3.45-22.65,2.22-37.34,7.36-4.2,1.47-12.94,7.22-16.33,11.79-5.07,6.83-8.19,13.38-12.68,19.24-6.19,8.08-21.59,12.66-28.91,9.9-7.82-2.94-12.69-10.48-12.47-22.8C241.36,213.82,251.36,182.84,280.72,173.24Z" style="fill: rgb(0, 255, 136); opacity: 0.3; transform-origin: 304.491px 217.192px;" class="animable"></path></g></g><g id="freepik--cushion--inject-34" class="animable" style="transform-origin: 159.666px 255.179px;"><path d="M200.72,155.24c-10.09-3.06-21,7.11-39.78,12.11-35.06,9.3-52.26,20.66-70.59,35.06S67,212.77,60.3,222.67s5,17,7.92,33.57c5,27.85,14.1,47.7,25,61.06,19.32,23.59,13.16,36.14,23.69,38.09,11.21,2.09,12.31-7.67,31.24-11,44.8-7.91,64.72-18.92,89.58-43.56,9.71-9.62,19.09-6.79,23-17.16,2-5.18-5.26-9.61-9-27.84-6.15-30.3-19.63-60.24-35.14-77.48C209.92,170.8,211,158.36,200.72,155.24Z" style="fill: rgb(0, 255, 136); transform-origin: 159.666px 255.179px;" id="el6kbhhcqyp6h" class="animable"></path><g id="el9gb3ep41179"><path d="M200.72,155.24c-10.09-3.06-21,7.11-39.78,12.11-35.06,9.3-52.26,20.66-70.59,35.06S67,212.77,60.3,222.67s5,17,7.92,33.57c5,27.85,14.1,47.7,25,61.06,19.32,23.59,13.16,36.14,23.69,38.09,11.21,2.09,12.31-7.67,31.24-11,44.8-7.91,64.72-18.92,89.58-43.56,9.71-9.62,19.09-6.79,23-17.16,2-5.18-5.26-9.61-9-27.84-6.15-30.3-19.63-60.24-35.14-77.48C209.92,170.8,211,158.36,200.72,155.24Z" style="opacity: 0.3; transform-origin: 159.666px 255.179px;" class="animable"></path></g><g id="elha15nro44bi"><path d="M68,242.93c6.33,14.2,2.7,26.39,16.24,52.87,13,25.43,24.34,34.09,27.59,45,2.69,9.05,7.83,14.05,11.15,4.74s1.2-38.24-11.64-65.17c-14.78-31-25.58-43.92-33.49-49.61C65.49,221.84,63.07,231.77,68,242.93Z" style="opacity: 0.2; transform-origin: 94.9927px 288.914px;" class="animable"></path></g><g id="elx6ep2blwu9b"><path d="M151,333.94c-12.26,1.69-14.77,11.76-22.09,18.49,4.19-2.67,9.21-6.27,19.3-8.06,20.41-3.6,35.65-7.86,48.55-13.74C180.51,335.46,159.88,332.71,151,333.94Zm82.31-38.49c-8.41,5.14-10,16.93-20.8,26.49,8.66-5.7,16.67-12.6,25.28-21.13,8.87-8.78,17.44-7.22,21.87-14.77C251.77,292.77,243.42,289.25,233.29,295.45Z" style="opacity: 0.2; transform-origin: 194.285px 319.235px;" class="animable"></path></g><g id="eliufhhyef7sk"><path d="M181.49,177.18c-25.39-.28-52.39,7.5-73,23a19.88,19.88,0,0,0-7.29,13.32c-.63,6.73,1.31,12.73,6.81,17.47,5.11,4.39,13.54,6.07,19.71,6.49,13,.88,21.12-1,37.57,2a38.34,38.34,0,0,1,16.41,7.8c7.2,6.1,12.23,12.38,18.56,17.57,8.72,7.16,26.52,8.21,33.72,3.38,7.7-5.16,11.05-14.53,7.7-27.78C234.26,211.05,215.63,180.12,181.49,177.18Z" style="fill: rgb(0, 255, 136); opacity: 0.3; transform-origin: 172.031px 224.171px;" class="animable"></path></g></g></g><g id="freepik--plants-1--inject-34" class="animable animator-active" style="transform-origin: 73.1291px 331.156px;"><g id="freepik--plants--inject-34" class="animable" style="transform-origin: 73.1291px 331.156px;"><path d="M112.33,392.14,89,405.6c.31-8.32,1-20.71-.11-29-7-51-26.91-67.79-36.35-92.61-9.95-26.13,2.18-34.54,17.94-29.84,14,4.19,34.38,25,40.78,63C115.52,342.45,114.77,369.94,112.33,392.14Z" style="fill: rgb(0, 255, 136); transform-origin: 81.619px 329.256px;" id="el73up9fdrr0y" class="animable"></path><g id="ell6nb0d0fqld"><path d="M112.33,392.14,89,405.6c.31-8.32,1-20.71-.11-29-7-51-26.91-67.79-36.35-92.61-9.95-26.13,2.18-34.54,17.94-29.84,14,4.19,34.38,25,40.78,63C115.52,342.45,114.77,369.94,112.33,392.14Z" style="fill: rgb(255, 255, 255); opacity: 0.65; transform-origin: 81.619px 329.256px;" class="animable"></path></g><path d="M100,399.27l-2.33,1.35c8.34-59.44-12-111-32-132.28a1,1,0,0,1,0-1.44,1,1,0,0,1,1.45,0C87.13,288.24,107.44,340.14,100,399.27Z" style="fill: rgb(255, 255, 255); transform-origin: 83.4678px 333.604px;" id="ely0ut9ustbf7" class="animable"></path><path d="M95.55,401.82,82.43,409.4h0c-7-20.55-14.15-28.78-23.05-42.29-8.1-12.3-17.53-19.92-22.54-28.57-4.44-7.65-7.77-17.27-1.18-23.09,10.49-9.26,24.19.54,33.6,11.13C77.39,335.75,93.76,360.12,95.55,401.82Z" style="fill: rgb(0, 255, 136); transform-origin: 63.7496px 360.577px;" id="elxm0b7ktkyw8" class="animable"></path><g id="ely8lxq4h8h1g"><path d="M95.55,401.82,82.43,409.4h0c-7-20.55-14.15-28.78-23.05-42.29-8.1-12.3-17.53-19.92-22.54-28.57-4.44-7.65-7.77-17.27-1.18-23.09,10.49-9.26,24.19.54,33.6,11.13C77.39,335.75,93.76,360.12,95.55,401.82Z" style="fill: rgb(255, 255, 255); opacity: 0.3; transform-origin: 63.7496px 360.577px;" class="animable"></path></g><path d="M90.17,404.92,88.26,406c-5.51-32.5-27.59-70.1-41.31-79a1.06,1.06,0,0,1-.3-1.46,1,1,0,0,1,1.44-.31C62.29,334.5,84.32,371.93,90.17,404.92Z" style="fill: rgb(255, 255, 255); transform-origin: 68.3242px 365.523px;" id="eltsm619jz4v" class="animable"></path></g></g><g id="freepik--chocolate-bar--inject-34" class="animable" style="transform-origin: 184.75px 420.085px;"><g id="freepik--chocolate-bar--inject-34" class="animable" style="transform-origin: 184.75px 420.085px;"><polygon points="235.44 425.8 202.18 445.03 134.06 405.68 167.32 386.44 235.44 425.8" style="fill: rgb(0, 255, 136); transform-origin: 184.75px 415.735px;" id="elmb8i27sx2il" class="animable"></polygon><g id="elzfuv3fsdu"><polygon points="235.44 425.8 202.18 445.03 134.06 405.68 167.32 386.44 235.44 425.8" style="fill: rgb(255, 255, 255); opacity: 0.2; transform-origin: 184.75px 415.735px;" class="animable"></polygon></g><g id="eluwe15mluz1b"><g style="opacity: 0.5; transform-origin: 184.75px 415.74px;" class="animable"><path d="M167.32,392.21l58.12,33.59-23.26,13.46-58.12-33.58,23.26-13.47m0-2.88-1.25.72-23.26,13.46-3.75,2.17,3.75,2.16,58.12,33.59,1.25.72,1.25-.72L226.69,428l3.75-2.16-3.75-2.17-58.12-33.58-1.25-.72Z" style="fill: rgb(255, 255, 255); transform-origin: 184.75px 415.74px;" id="el00tsu9w0b8c3" class="animable"></path></g></g><polygon points="235.44 425.8 202.18 445.03 202.18 453.73 235.44 434.5 235.44 425.8" style="fill: rgb(0, 255, 136); transform-origin: 218.81px 439.765px;" id="el7jv2dj2fexa" class="animable"></polygon><polygon points="134.06 405.68 134.06 414.37 202.18 453.73 202.18 445.03 134.06 405.68" style="fill: rgb(0, 255, 136); transform-origin: 168.12px 429.705px;" id="el5wywxfmk4me" class="animable"></polygon><g id="el7symis923qj"><polygon points="134.06 405.68 134.06 414.37 202.18 453.73 202.18 445.03 134.06 405.68" style="opacity: 0.15; transform-origin: 168.12px 429.705px;" class="animable"></polygon></g><path d="M213.06,427.4c-1.61-.93-4.78-.78-7.44.48a8.77,8.77,0,0,1-3-.27c-.21-.11.1-.39.72-.75a36.67,36.67,0,0,1,3.38-1.64c.36.21,1,.65,1.19.77s1.17-.27,1.36-.38.23-.14.1-.21l-1.23-.74,1.58-.31c.48-.43.9-.85.36-1.16s-1.82,0-3.5.58l-.69-.38a2.85,2.85,0,0,0-1.43.44c-.09.05-.1.11,0,.17l.56.33a25.69,25.69,0,0,0-2.57,1.16c-.64,0-3.13.23-3.6,0-.19-.11.27-.46.94-.85a17.64,17.64,0,0,1,2-1c.56-.1,1.07-.21,1.68-.37a.88.88,0,0,0,.07-1.44,1.3,1.3,0,0,0-.86,0,.9.9,0,0,0-.23-.31,4.6,4.6,0,0,0-.67-.49,7.6,7.6,0,0,0-4.11-.56,10.69,10.69,0,0,0-3.52,1,5,5,0,0,1-2.93-.36c-.64-.36-.59-.91.49-1.54l.58-.34c4-.46,7.5-.26,9.3-1.3.82-.47.86-1,.14-1.42-2.53-1.47-8.26.07-11.87,2.06a3,3,0,0,1-1.77-.28l-.08,0a7.59,7.59,0,0,0,1.82-.71c.9-.52,1.19-1.16.36-1.63a3.89,3.89,0,0,0-3.54.12c-.88.5-1.25,1.1-1.14,1.69a3.21,3.21,0,0,1-1.24-.38c-.91-.53-.66-1.18.2-1.68a5.75,5.75,0,0,1,5.43-.24c.74.42,1.09.51,1.22.44.43-.25-.08-1-1-1.59-2.06-1.19-5.24-.85-7.45.31a7.12,7.12,0,0,1-3.2-.19c-.34-.2-.9-.73-.09-1.19,1.31-.76,3.22-1.44,4-1,.31.19,0,.48.31.67a2,2,0,0,0,1.74-.29c.53-.3.63-.67,0-1-1.59-.91-4.82-.84-7.49.39a2.55,2.55,0,0,1-1.33-.3l-.08,0a7.67,7.67,0,0,0,1.81-.71c.91-.53,1.19-1.16.37-1.63a3.94,3.94,0,0,0-3.55.11c-.87.51-1.25,1.11-1.13,1.7a3.16,3.16,0,0,1-1.24-.38c-.91-.53-.67-1.18.19-1.68a5.77,5.77,0,0,1,5.44-.24c.73.42,1.09.51,1.22.43.42-.24-.09-1-1-1.58-2.09-1.21-5.35-.84-7.56.37a9.34,9.34,0,0,1-2.64-.05c-.1-.05-.06-.13.11-.22.57-.33,2.55-.86,4-1.68,1-.6,1.07-1.32-.07-2a5.12,5.12,0,0,0-3.39-.35l1.24-.5a13.55,13.55,0,0,0,3.85-1c.34-.19,1.18-1,.66-1.27a1.26,1.26,0,0,0-.9-.07,37.51,37.51,0,0,0-9.1,3,3.39,3.39,0,0,0-.6,0,7.46,7.46,0,0,1-4.23-.7c-1.25-.73-.87-1.64.83-2.62a15.5,15.5,0,0,1,4.6-1.61,4.46,4.46,0,0,0,1.52,1.42,4.2,4.2,0,0,0,4,.2c1.41-.81.9-1.55-.14-2.15a8.18,8.18,0,0,0-4-.91c-.13-.44.21-1-.11-1.23a.65.65,0,0,0-.57,0,2.19,2.19,0,0,0-.92,1.27,18.09,18.09,0,0,0-6.92,2.15c-2.34,1.35-2.42,2.94-.14,4.26a8,8,0,0,0,4.7.92l-.24.14c-.89.51-1.14,1-.79,1.18a3.28,3.28,0,0,0,1.15.24,2.4,2.4,0,0,0,1.53-.37c.38-.22.81-.51,1.23-.79,1.36-.6,3.88-1.12,4.58-.72.44.26.35.46,0,.63-.86.5-1.94.67-3.48,1.56-1,.57-1.65,1.2-.86,1.67a7,7,0,0,0,3.89.45c-.57.74-.46,1.61.89,2.39a6.76,6.76,0,0,0,3.8.62,3.94,3.94,0,0,0,.72.52,3.12,3.12,0,0,0,1.22.37c-.77.77-.37,1.55.48,2a7.07,7.07,0,0,0,4.4.69c-.58.75-.47,1.62.89,2.4a6.75,6.75,0,0,0,3.79.62,4.32,4.32,0,0,0,.72.52,3.3,3.3,0,0,0,1.83.37c-.89.95-.36,1.86.75,2.5a6.14,6.14,0,0,0,3.34.48c-.54.65-.37,1.32.5,1.82a5.3,5.3,0,0,0,3.7.49c-.66.54-.94,1-.46,1.3a7.88,7.88,0,0,0,4.54.41c-1,.72-1.45,1.38-.79,1.76a8.19,8.19,0,0,0,4,.62c-.73.77-.31,1.56.62,2.09a7.71,7.71,0,0,0,6.8.48c.34-.19.46-.32.33-.4-.29-.16-2.94.4-4.61-.56-.47-.28-1-.81-.24-1.27l.37-.21c2.06.36,3.91,1.16,5.64.16C213.94,428.59,214,428,213.06,427.4ZM199.93,417c.15.09.11.19-.11.31-.9.53-2.32.37-5.48.87C197.13,417,199.38,416.69,199.93,417Zm-30.64-17.86c.41.24.44.46.05.69a1.17,1.17,0,0,1-1.17-.12,4.2,4.2,0,0,1-1.23-1A4.57,4.57,0,0,1,169.29,399.14Zm6.87,11.67a1.15,1.15,0,0,1,.63-.75,1.22,1.22,0,0,1,.83-.16c.2.11,0,.29-.21.44A4.62,4.62,0,0,1,176.16,410.81Zm12.14,5.9a1.14,1.14,0,0,1,.82-.17c.2.12,0,.3-.2.44a4.84,4.84,0,0,1-1.26.47A1.16,1.16,0,0,1,188.3,416.71Zm7.08,6.93c-.57-.33-.16-.74.41-1.07a7.51,7.51,0,0,1,6-.51,27.27,27.27,0,0,0-3.07,1.48A4.31,4.31,0,0,1,195.38,423.64Zm15.91,4.67c-.6.34-1.46.15-2.71.05,1-.45,2.17-.78,2.68-.49C211.53,428,211.51,428.18,211.29,428.31Z" style="fill: rgb(250, 250, 250); transform-origin: 185.122px 414.133px;" id="el2o7yuzj0kuk" class="animable"></path><path d="M153.72,407.07a.41.41,0,0,0,.1-.29.45.45,0,0,0-.11-.28,1.07,1.07,0,0,0-.32-.26l-.17-.09a1.23,1.23,0,0,0-.25-.08l.58-.29,1,.6.11,0a.2.2,0,0,0,.11,0l.3-.18s0,0,.05-.06a.07.07,0,0,0,0-.06l-1.38-.79a.11.11,0,0,0-.1,0l-.11,0-1.54.77s0,0,0,.06a0,0,0,0,0,0,.06l.34.2a.19.19,0,0,0,.1,0l.12,0,.15,0a.53.53,0,0,1,.19.09q.21.12.21.27a.3.3,0,0,1-.19.25,1,1,0,0,1-.49.14.94.94,0,0,1-.47-.12l-.15-.1a.44.44,0,0,1-.09-.11.17.17,0,0,1,0-.12.26.26,0,0,1,.09-.13.11.11,0,0,0,0-.07.05.05,0,0,0,0-.05l-.29-.17a.18.18,0,0,0-.11,0,.23.23,0,0,0-.11,0,1.06,1.06,0,0,0-.24.23.4.4,0,0,0-.09.25.43.43,0,0,0,.12.28,1,1,0,0,0,.36.29,2.08,2.08,0,0,0,.43.19,2,2,0,0,0,.49.07,1.86,1.86,0,0,0,.52-.07,2,2,0,0,0,.54-.22A1.17,1.17,0,0,0,153.72,407.07Zm2.29,1.46.2-.11.2-.12.17-.1a2.2,2.2,0,0,0,.39-.3.68.68,0,0,0,.2-.31.39.39,0,0,0-.06-.31,1,1,0,0,0-.37-.31,1.51,1.51,0,0,0-.54-.21,1.7,1.7,0,0,0-.55,0,2.08,2.08,0,0,0-.54.11,3.93,3.93,0,0,0-.52.23l-.37.21-.36.21a2.2,2.2,0,0,0-.39.3.68.68,0,0,0-.2.31.44.44,0,0,0,.06.31.92.92,0,0,0,.37.31,1.76,1.76,0,0,0,.54.22,2.45,2.45,0,0,0,.54,0,2.38,2.38,0,0,0,.53-.11,3.43,3.43,0,0,0,.52-.23Zm-.65-.2a1.84,1.84,0,0,1-.6.2.77.77,0,0,1-.53-.11c-.17-.1-.24-.2-.2-.31a.83.83,0,0,1,.34-.34l.35-.21.36-.2a1.84,1.84,0,0,1,.6-.2.81.81,0,0,1,.54.11c.17.1.23.2.19.31a.83.83,0,0,1-.34.34l-.35.21Zm-2.4-3.46a.05.05,0,0,0,0-.06l-.29-.17-.09,0h-.11l-1.52,0a.22.22,0,0,0-.11,0s-.06,0-.06.06l-.08.24a.06.06,0,0,0,0,.07l.1,0,1,0-2.09,1.21s-.05,0-.05.07,0,0,0,0l.3.18.1,0a.2.2,0,0,0,.11,0l2.73-1.58A.11.11,0,0,0,153,404.87Zm6.93,4.84-.28-.16a.16.16,0,0,0-.1,0,.18.18,0,0,0-.11,0l-.1.05a.14.14,0,0,0,0-.09.26.26,0,0,0,0-.11.51.51,0,0,0-.09-.13.83.83,0,0,0-.18-.13,1.34,1.34,0,0,0-.41-.15,2.57,2.57,0,0,0-.48,0,4,4,0,0,0-.48.09,2.53,2.53,0,0,0-.44.18l-.15.08-.15.09a1.34,1.34,0,0,0-.31.26.61.61,0,0,0-.15.27.39.39,0,0,0,0,.28.55.55,0,0,0,.24.24l.23.1.22.05.2,0h.16l-.16.09a.77.77,0,0,1-.25.1,1.18,1.18,0,0,1-.26,0,.85.85,0,0,1-.23,0l-.19-.08a.43.43,0,0,1-.21-.17.2.2,0,0,1,0-.15s0-.05,0-.08a.08.08,0,0,0-.05-.07l-.25-.14a.11.11,0,0,0-.1,0,.18.18,0,0,0-.11,0,.42.42,0,0,0-.17.18.48.48,0,0,0,0,.24.48.48,0,0,0,.13.24,1,1,0,0,0,.28.24,1.87,1.87,0,0,0,1,.24,2,2,0,0,0,1-.3l2-1.15s0,0,0-.06A0,0,0,0,0,159.89,409.71Zm-1.32.32-.15.1-.17.09a1.11,1.11,0,0,1-.49.12.94.94,0,0,1-.43-.1.29.29,0,0,1-.18-.25c0-.09.08-.2.25-.31a1.38,1.38,0,0,1,.24-.14,1.14,1.14,0,0,1,.54-.14.82.82,0,0,1,.42.1.29.29,0,0,1,.18.25A.38.38,0,0,1,158.57,410Z" style="fill: rgb(255, 255, 255); transform-origin: 154.8px 407.952px;" id="elz910jr12ze" class="animable"></path></g></g><g id="freepik--Character--inject-34" class="animable" style="transform-origin: 271.679px 257.046px;"><g id="freepik--character--inject-34" class="animable" style="transform-origin: 271.679px 257.046px;"><g id="freepik--Bottom--inject-34" class="animable" style="transform-origin: 291.307px 371.962px;"><path d="M303.33,383.19l20.3-27.48,26.12,24.13L305,417.77s-17.69-5.39-18.76-15.88S297.75,385.49,303.33,383.19Z" style="fill: rgb(240, 153, 122); transform-origin: 317.963px 386.74px;" id="elkawvhp9nusk" class="animable"></path><path d="M282.13,388.65c-5.76.16-8.32,1.66-10.39,6.31s-1.54,9.61-3.88,16.05-5.94,9-9.54,17.37-3.69,23.14.57,32.58,8.44,14,19.77,14.28Z" style="fill: rgb(38, 50, 56); transform-origin: 268.892px 431.945px;" id="el7llu7lkbynj" class="animable"></path><path d="M303.33,383.19l-2.46,3.16a28.09,28.09,0,0,0,7,14.35c6.11,6.54,9.27,6.74,9.27,6.74l2-1.7s.83,1.1-2.37,3.67A49.55,49.55,0,0,0,306,420.31c-4.57,6.15-10.1,21.64-12.55,33.14s-2.39,20.07-11.52,21.68-16.25-8.4-19.62-17-2.87-20.57-.16-28.7,9.85-12.36,10.51-22.32c.48-7.33,2.89-14.17,6.56-17s10.06-2.54,14.71-4.11S301.81,381.93,303.33,383.19Z" style="fill: rgb(69, 90, 100); transform-origin: 289.593px 429.074px;" id="elpccaeqvfpo" class="animable"></path><path d="M292.06,460.54c-3.48-12.31-21.77-19.27-32.1-16.32a39.48,39.48,0,0,0,2.34,13.91c3.37,8.6,10.49,18.6,19.62,17C289,473.88,290.57,468.37,292.06,460.54Z" style="fill: rgb(250, 250, 250); transform-origin: 276.008px 459.423px;" id="elfgrsmxfhib" class="animable"></path><g id="eln6pnf5bsxpq"><path d="M316.82,409.41c3.2-2.57,2.37-3.67,2.37-3.67l-2,1.7s-3.16-.2-9.27-6.74a28.09,28.09,0,0,1-7-14.35l2.46-3.16c-1.52-1.26-4.75,1.2-9.41,2.77s-11,1.24-14.71,4.11a16,16,0,0,0-4.61,7.21l28.94,7.45s-5,12.21-8.88,23.71c-4.75,14.1-5.14,32.43-13.52,36.81-8.07,4.22-19.86-13.74-20.77-27.77-.88,6.88-.43,14.59,1.93,20.65,3.37,8.6,10.49,18.6,19.62,17S291,465,293.44,453.45s8-27,12.55-33.14A49.55,49.55,0,0,1,316.82,409.41Z" style="opacity: 0.1; transform-origin: 289.645px 429.072px;" class="animable"></path></g><path d="M295.18,448.86a14.33,14.33,0,0,0-1.4-2.62,22.81,22.81,0,0,0-3.62-4.4,23.49,23.49,0,0,0-10.64-6c-.37-.08-.46.66-.22.83,3.23,2.13,6.7,3.86,9.54,6.53a22.86,22.86,0,0,1,3.25,3.76,19.42,19.42,0,0,1,1.27,2.21,5.39,5.39,0,0,0,1.56,2.38.3.3,0,0,0,.31-.06C296,450.76,295.49,449.66,295.18,448.86Z" style="fill: rgb(250, 250, 250); transform-origin: 287.401px 443.702px;" id="elfe5iy7ozkj" class="animable"></path><path d="M297.59,440.4a19.28,19.28,0,0,0-6.23-8.18,27.7,27.7,0,0,0-3.82-2.61,20.26,20.26,0,0,0-2.1-1A10.37,10.37,0,0,0,283,428c-.3,0-.46.59-.21.73,1.42.81,2.83,1.65,4.23,2.49a26,26,0,0,1,3.77,2.76,30.34,30.34,0,0,1,3.1,3.11c1.11,1.31,2.08,2.73,3.17,4.05C297.41,441.62,297.68,440.66,297.59,440.4Z" style="fill: rgb(250, 250, 250); transform-origin: 290.137px 434.636px;" id="elptiq05muwe" class="animable"></path><path d="M299.4,427.06a21.47,21.47,0,0,0-3.49-3.94,26.09,26.09,0,0,0-4.62-3.24,11.83,11.83,0,0,0-4.84-1.9c-.41,0-.53.79-.25,1a42.59,42.59,0,0,0,4.67,2.74,28.06,28.06,0,0,1,4.16,3,18.93,18.93,0,0,1,3,3.32c.41.59.77,1.22,1.15,1.82a28.37,28.37,0,0,0,1.53,2.56c.26.32.55-.18.56-.41A8.54,8.54,0,0,0,299.4,427.06Z" style="fill: rgb(250, 250, 250); transform-origin: 293.659px 425.252px;" id="el6k96erbt3um" class="animable"></path><path d="M303.87,418.16c-1.08-1.28-2.2-2.54-3.4-3.72a24,24,0,0,0-3.94-3.16,9.22,9.22,0,0,0-4.37-1.78c-.43,0-.5.77-.2,1,1.32.86,2.74,1.58,4,2.5a32.61,32.61,0,0,1,3.55,3.09c1,1,2,2,2.88,3.11a13.46,13.46,0,0,1,1.26,1.64,5.17,5.17,0,0,1,.42.85c.17.43.45.78.63,1.19s.45.45.67.13C306.55,421.33,304.94,419.42,303.87,418.16Z" style="fill: rgb(250, 250, 250); transform-origin: 298.78px 416.361px;" id="elwj7jmwgpe7" class="animable"></path><path d="M283.68,269.38s77.46-3.06,107.17,3.12c30.32,6.31,23.91,40.18,14.79,54.22-20.58,31.7-64.4,61.07-64.4,61.07s-22.71-8-25.06-24.55l13.43-20.54-38.56,4.94L274.94,330.8l-8.09-8.23Z" style="fill: rgb(55, 71, 79); transform-origin: 340.029px 328.206px;" id="el33fso1z4omw" class="animable"></path><path d="M319.33,364.42s14.61,9.9,21.56,13.5a122.94,122.94,0,0,0,11.89,5.46l-9,26.71L306.32,398Z" style="fill: rgb(255, 189, 167); transform-origin: 329.55px 387.255px;" id="el4kp2azdbprw" class="animable"></path><path d="M347.5,412.7s7.36,4.35,9.37,5.08,7.06,1.61,10.63,3.56,17.44,9.7,26,10.6,23.46-1.11,28.35-15Z" style="fill: rgb(38, 50, 56); transform-origin: 384.675px 422.412px;" id="eldvnyn30qqdd" class="animable"></path><path d="M346.36,380.61c2.63,1.42,3.14,11.05,1,16.81-1.68,4.45-6.53,11.17-9.32,10.81l-2.65-.86s0,1.92,4.29,3,17.27,5.52,22.21,6.89,14.91,7.52,21.28,9.6,12.34,5.15,23.56,2,19.66-14,16.43-24.14-13.83-13.43-22.67-15-24.36-.94-34-3.61a106.91,106.91,0,0,1-18.71-6.81c-2.92-1.44-4.74-.26-4.74-.26Z" style="fill: rgb(69, 90, 100); transform-origin: 379.623px 404.398px;" id="elo23tle0rb19" class="animable"></path><path d="M388.44,390.32c-2.55,2.4-4,6-5,9.32-1.11,3.65-2.12,7.75-1.76,11.57,0,.38.55,1.07.85.46a18.47,18.47,0,0,0,1.27-5c.32-1.72.62-3.44,1.05-5.14a34.62,34.62,0,0,1,1.57-4.74,41.44,41.44,0,0,1,2.88-5.27C389.62,391,389.09,389.71,388.44,390.32Z" style="fill: rgb(250, 250, 250); transform-origin: 385.501px 401.036px;" id="elvaj6pbfo7k" class="animable"></path><path d="M380.5,390.39c-.08-.36-.37-.85-.81-.77-.86.16-1.15.82-1.56,1.53a24,24,0,0,0-1.22,2.3,33.14,33.14,0,0,0-1.7,4.65,35.43,35.43,0,0,0-1.07,4.8c-.29,1.87-.59,3.74.1,5.55.1.27.51.8.82.38,1-1.31.79-3.06,1-4.63a32.61,32.61,0,0,1,1.08-4.75,36.12,36.12,0,0,1,1.75-4.5c.35-.77.71-1.54,1.1-2.29A2.92,2.92,0,0,0,380.5,390.39Z" style="fill: rgb(250, 250, 250); transform-origin: 377.185px 399.299px;" id="el22ptwvc7ffh" class="animable"></path><path d="M371.05,388.51a6.15,6.15,0,0,0-1.41,2.12c-.36.67-.71,1.35-1,2.05a40.33,40.33,0,0,0-1.66,4.66c-.89,3.05-1.74,6.43-1.19,9.62.08.45.75,1.16,1.05.44a21.42,21.42,0,0,0,1-4.5,38.06,38.06,0,0,1,1.08-4.58,43.37,43.37,0,0,1,1.55-4.26c.29-.69.57-1.37.88-2.05a8.49,8.49,0,0,0,.91-2.29C372.34,389.17,371.72,388,371.05,388.51Z" style="fill: rgb(250, 250, 250); transform-origin: 368.941px 398.046px;" id="el98s0cfcm9d" class="animable"></path><path d="M363.48,385.78a25.2,25.2,0,0,0-5.91,19.39c0,.31.38.26.46,0,.92-3.06,1.71-6.19,2.73-9.23s2.41-6,3.69-8.92C364.68,386.47,364.14,385.05,363.48,385.78Z" style="fill: rgb(250, 250, 250); transform-origin: 360.949px 395.48px;" id="eleov7ouvgqyd" class="animable"></path><path d="M423.13,404.7c-2.56-8.05-9.74-11.77-17-13.76-10.92,5.37-14.43,33.44-12.11,39a30.34,30.34,0,0,0,12.69-1.08C417.91,425.69,426.36,414.87,423.13,404.7Z" style="fill: rgb(250, 250, 250); transform-origin: 408.583px 410.561px;" id="el19agtu2uken" class="animable"></path><g id="el10pexo21uof"><path d="M406.7,428.84c8.88-2.49,16-9.8,17-17.78a22.86,22.86,0,0,1-12.38,11.63c-9.35,3.79-28.83-2.77-37.22-7.77-6.81-4.05-18.23-7-29.08-13-2.17,3.43-5.08,6.56-7,6.31l-2.65-.86s0,1.92,4.29,3,17.27,5.52,22.21,6.89,14.91,7.52,21.28,9.6S395.48,432,406.7,428.84Z" style="opacity: 0.1; transform-origin: 379.535px 416.06px;" class="animable"></path></g><path d="M327.17,366.66c-17.94-14.84-43.92-38.36-55.43-43.91l-.91-.42c8.05-12.91,14-24.59,12.85-52.95l-117.21.11s-12.29,32.44-5.84,53.69c7.65,25.17,25,35.34,44.23,43.95,19.93,8.92,43.15,12.75,43.15,12.75,5,4.48,12.23,8.23,21.46,10.92,11.66,3.42,33.67,7.92,46.38,11.28C325.55,393.61,329.71,368.76,327.17,366.66Z" style="fill: rgb(55, 71, 79); transform-origin: 243.329px 335.73px;" id="elvz7ljjmulm" class="animable"></path><path d="M277.29,318.94c5.7-13.05,4.93-23.61,4.93-23.61-1.32,8.28-5.28,16.66-8.43,22.09-4.39-2.29-8.28-2.71-15.18-2.88-12-.29-46.89-1-46.89-1s33,3,49.87,6.14a34.83,34.83,0,0,1,9.24,2.68c8.75,4.43,15.21,10.15,19.29,13.25,7.55,5.72,12.79,10.54,12.79,10.54l6.71-.86s-13.9-11.36-24.48-19.88C283.69,324.21,278.59,320.11,277.29,318.94Zm-33,60.25c2.49.48,3.68.69,3.68.69l.11.09a36.86,36.86,0,0,1-5.2-7.84A20.75,20.75,0,0,0,244.33,379.19Zm95.74-59A278.46,278.46,0,0,0,319.76,344l9.85-1.25c15.32-24.14,18.89-31.36,37.87-40.29C367.48,302.41,354.62,304.75,340.07,320.18Z" style="fill: rgb(38, 50, 56); transform-origin: 289.6px 337.65px;" id="elzxsbsbibbg" class="animable"></path></g><g id="freepik--Top--inject-34" class="animable" style="transform-origin: 230.12px 170.98px;"><path d="M136.06,80.25c-.95-3.18,0-8.79,2.73-10.64s5.31-2.18,8.77-2c6.58.27,7.39-4.4,7.91-5.86,2-5.68,4.75-8.49,8.56-9.75,10.21-3.38,32.59,3,27.21,17.65-.8,2.18-2.32,4.35-1.73,6.6A7.33,7.33,0,0,0,191,78.78c3,3.81,6.34,7.47,8.28,11.92a15.69,15.69,0,0,1,1,10.38c-.95,3.35-4.56,5.31-5.21,8.58a11.67,11.67,0,0,0,.12,4.08,53.43,53.43,0,0,1,.93,8.25,13.06,13.06,0,0,1-2.29,7.85c-3,3.94-8.46,5-13.38,4.69a4.27,4.27,0,0,0-2.77.44,5.6,5.6,0,0,0-1.41,2.21c-1.5,2.94-4.85,4.5-8.11,5a14.84,14.84,0,0,1-9.37-1.41,10,10,0,0,1-5.26-7.62,3.33,3.33,0,0,0-1.2,3.64,9.85,9.85,0,0,0,2.06,3.51A9,9,0,0,1,147,137a7.38,7.38,0,0,1-.66-7.94c.65-1.12,1.64-2.1,1.8-3.38.23-1.89-1.44-3.42-3-4.53-2.4-1.73-4.95-3.34-6.88-5.59-2.87-3.35-6.31-11.21-1.1-14.22a4.28,4.28,0,0,0-4,2.79,12.57,12.57,0,0,0-.7,5.18,11,11,0,0,1,.53-16.49c1.55-1.27,3.56-2.27,4.18-4.17C138.22,85.5,137,83.36,136.06,80.25Z" style="fill: rgb(38, 50, 56); transform-origin: 164.869px 96.7612px;" id="el5sb4qenuwpn" class="animable"></path><path d="M183.82,52.08c-9.85-1-18.81,13.29-14,25.3S199.18,52.73,183.82,52.08Z" style="fill: rgb(0, 255, 136); transform-origin: 178.646px 65.9126px;" id="elldjoqa2mmw8" class="animable"></path><g id="freepik--Head--inject-34" class="animable" style="transform-origin: 216.324px 99.1143px;"><path d="M258.34,61.54c-1.39-11.27-14.09-12-17.46-11.68-4.61.45-9.93-2.12-12.92-5.74a16.1,16.1,0,0,0-15.49-4.94c-9.07,2.17-7.06,6-14.75,8.42-6.85,2.16-11,3.28-17.7,8.61-13.76,10.95-16.67,31.46-7.5,50.43,4.71,9.75,10.51,14.38,17.7,22.52l7.11.16c2.45-6,8.47-4.74,14-6,3.56-1.52,5.66-5.44,9.22-7s7.82-.26,11.71-.86c3-.47,6.1-2.2,9.22-1.35,7.09,3,18-3,17.31-11.21-.22-2.5-1.54-5-1-7.41.69-3.22,4.17-4.93,6.06-7.62,2.13-3,2.15-7.57-.31-10.33C258.56,72,259.14,67.94,258.34,61.54Z" style="fill: rgb(38, 50, 56); transform-origin: 216.324px 84.055px;" id="el7d5up6xiix" class="animable"></path><path d="M227.38,147.42c-2.82.24-2.81-3-2.83-4.1l-.2-4.84c6,.1,11.37-.93,14.84-3.42,5.84-4.17,11-10.28,11-30.37,0-8.12-2.29-12-2.14-13.77a52.7,52.7,0,0,0-.14-11.23c-.47-3.5-1.27-5.92-4.54-7.79a25.47,25.47,0,0,0-6-2.23,17.86,17.86,0,0,1-4.27-1.6,5.84,5.84,0,0,1-2.81-3.46,13.5,13.5,0,0,0-.09,6.65,6.34,6.34,0,0,0,4.5,4.54,8.77,8.77,0,0,1-11.93-3.4c-.65-1.15-1-2.43-1.64-3.59-3.9-7.33-13.38-5.54-18.82-1.2a1.39,1.39,0,0,0-.49.56,1.63,1.63,0,0,0,0,1A17.51,17.51,0,0,1,194,88a20.22,20.22,0,0,1,2,7.81,8.57,8.57,0,0,1-.49,3.73,4,4,0,0,1-2.7,2.45c-2.81.61-3.39-2.86-4.81-4.5a11.54,11.54,0,0,0-5.12-3.5,8.57,8.57,0,0,0-9.73,2.91c-3.49,5-3.54,12.75,2.9,19.94,6.27,7,13.46,2.7,13.57,1.3,0,0,.92,22.2,1,25.92s-.24,6-4.89,7.4c0,0,10.65,10.43,31.27,7.44C232.17,156.71,227.38,147.42,227.38,147.42Z" style="fill: rgb(255, 189, 167); transform-origin: 210.494px 111.635px;" id="el2gsd4rb7sdo" class="animable"></path><path d="M179.85,113.86a3.29,3.29,0,1,0,3.37-3.2A3.29,3.29,0,0,0,179.85,113.86Z" style="fill: rgb(0, 255, 136); transform-origin: 183.139px 113.949px;" id="elk1eetppri2" class="animable"></path><path d="M199,104.56a6.93,6.93,0,1,0,6.94-6.92A6.93,6.93,0,0,0,199,104.56Z" style="fill: rgb(255, 168, 167); transform-origin: 205.93px 104.57px;" id="eld5vzujqxw98" class="animable"></path><path d="M249,95.94a6.93,6.93,0,0,0,0,13.85,5.82,5.82,0,0,0,1.12-.13c.08-1.56.13-3.21.13-5a35.87,35.87,0,0,0-1-8.74Z" style="fill: rgb(255, 168, 167); transform-origin: 246.292px 102.855px;" id="elpefapz5y2p" class="animable"></path><path d="M245.12,88l-8.07-2.34a4,4,0,0,1,5.06-2.94A4.41,4.41,0,0,1,245.12,88Z" style="fill: rgb(38, 50, 56); transform-origin: 241.149px 85.2741px;" id="el9ol6oe2qp3" class="animable"></path><path d="M207.94,89l7.85-3.28a4.08,4.08,0,0,0-5.43-2.38A4.47,4.47,0,0,0,207.94,89Z" style="fill: rgb(38, 50, 56); transform-origin: 211.725px 86.0088px;" id="elifn6yhcjkh" class="animable"></path><path d="M209.61,95.77c-.32,1.91,2,.52,4.07.66s3.77,1.79,3.76-.14a3.64,3.64,0,0,0-3.62-3.55A3.73,3.73,0,0,0,209.61,95.77Z" style="fill: rgb(38, 50, 56); transform-origin: 213.51px 94.9604px;" id="elxy31ec23ok" class="animable"></path><path d="M244.33,94.27c.71,1.79-1.82.91-3.84,1.49s-3.31,2.55-3.7.66a3.64,3.64,0,0,1,2.79-4.24A3.73,3.73,0,0,1,244.33,94.27Z" style="fill: rgb(38, 50, 56); transform-origin: 240.589px 94.5845px;" id="el40vj97r89kq" class="animable"></path><path d="M224.34,138.48c-9.85,0-22.83-2.11-31.23-15.1a20.34,20.34,0,0,0,9.42,14,36,36,0,0,0,22,5.06Z" style="fill: rgb(240, 153, 122); transform-origin: 208.82px 132.988px;" id="el7vf2g8utn3w" class="animable"></path><path d="M237.44,104.06l-10.92,4.06-2.89-19.71C228.19,90.48,232.8,96.73,237.44,104.06Z" style="fill: rgb(240, 153, 122); transform-origin: 230.535px 98.265px;" id="elua1ny5dxsqf" class="animable"></path><path d="M215.44,113.2c2.4-2,4.1,1,8.84,2.23s7.76-.93,8.38,2.17c.52,2.59-3,7.65-10.93,6.06C215,122.31,213.29,114.94,215.44,113.2Z" style="fill: rgb(177, 102, 104); transform-origin: 223.638px 118.247px;" id="ello36dfggr8o" class="animable"></path><path d="M224.28,115.43c-3.08-.82-4.87-2.34-6.41-2.77l-.34,2.16s1.32,1.6,5,2.69a14.46,14.46,0,0,0,7.66.33l.81-2C229.55,115.63,227.21,116.21,224.28,115.43Z" style="fill: rgb(250, 250, 250); transform-origin: 224.265px 115.433px;" id="elohcfgqmsxb" class="animable"></path><path d="M221.73,123.66a13.54,13.54,0,0,0,4.37.2,9.24,9.24,0,0,0-11.16-6.08A8.83,8.83,0,0,0,221.73,123.66Z" style="fill: rgb(242, 143, 143); transform-origin: 220.52px 120.711px;" id="elk4enmrvu128" class="animable"></path></g><path d="M299,144.55c-2-1.41-4.25-2-6.26-3.27a27.39,27.39,0,0,1-5.51-4.8c-2.15-2.35-4.11-4.89-6.44-7.07a4,4,0,0,1-1.35-1.85,2.32,2.32,0,0,1,1.49-2.49,4.07,4.07,0,0,1,3.08.19c1.83.78,3.39,2.08,5.24,2.87a2.71,2.71,0,0,0,2.07.24,2.43,2.43,0,0,0,1.08-2.55" style="fill: rgb(255, 189, 167); transform-origin: 289.209px 134.702px;" id="elmjuqt78nb6" class="animable"></path><g id="freepik--chocolate-bar--inject-34" class="animable" style="transform-origin: 264.635px 126.89px;"><polygon points="279.03 129.82 288.83 129.64 281.25 117.04 271.45 117.22 279.03 129.82" style="fill: rgb(177, 102, 104); transform-origin: 280.14px 123.43px;" id="elahk8ru0g3ok" class="animable"></polygon><polygon points="276.66 134.1 279.03 129.82 271.45 117.22 267.21 118.41 276.66 134.1" style="fill: rgb(154, 74, 77); transform-origin: 273.12px 125.66px;" id="elt7kexnfsi7g" class="animable"></polygon><g id="elp2h7tki7wfi"><polygon points="276.66 134.1 279.03 129.82 271.45 117.22 267.21 118.41 276.66 134.1" style="opacity: 0.1; transform-origin: 273.12px 125.66px;" class="animable"></polygon></g><polygon points="276.66 134.1 279.03 129.82 288.83 129.64 290.08 133.86 276.66 134.1" style="fill: rgb(154, 74, 77); transform-origin: 283.37px 131.87px;" id="ell50qe0cim1b" class="animable"></polygon><polygon points="265.62 130.06 275.42 129.88 267.83 117.29 258.03 117.47 265.62 130.06" style="fill: rgb(177, 102, 104); transform-origin: 266.725px 123.675px;" id="elkd0deipuqcs" class="animable"></polygon><polygon points="263.25 134.35 265.62 130.06 258.03 117.47 253.8 118.66 263.25 134.35" style="fill: rgb(154, 74, 77); transform-origin: 259.71px 125.91px;" id="elfzh1h8mznpw" class="animable"></polygon><g id="el50orgvkae5t"><polygon points="263.25 134.35 265.62 130.06 258.03 117.47 253.8 118.66 263.25 134.35" style="opacity: 0.1; transform-origin: 259.71px 125.91px;" class="animable"></polygon></g><polygon points="263.25 134.35 265.62 130.06 275.42 129.88 276.66 134.1 263.25 134.35" style="fill: rgb(154, 74, 77); transform-origin: 269.955px 132.115px;" id="el0v9ak1h8e18e" class="animable"></polygon><polygon points="252.2 130.31 262 130.13 254.41 117.54 244.62 117.72 252.2 130.31" style="fill: rgb(177, 102, 104); transform-origin: 253.31px 123.925px;" id="el81zmpikebrd" class="animable"></polygon><polygon points="249.83 134.6 252.2 130.31 244.62 117.72 240.38 118.91 249.83 134.6" style="fill: rgb(154, 74, 77); transform-origin: 246.29px 126.16px;" id="eldfvmkou4ge8" class="animable"></polygon><g id="el1z6tcacvw7n"><polygon points="249.83 134.6 252.2 130.31 244.62 117.72 240.38 118.91 249.83 134.6" style="opacity: 0.1; transform-origin: 246.29px 126.16px;" class="animable"></polygon></g><polygon points="249.83 134.6 252.2 130.31 262 130.13 263.25 134.35 249.83 134.6" style="fill: rgb(154, 74, 77); transform-origin: 256.54px 132.365px;" id="elvu2j6mpjiud" class="animable"></polygon><polygon points="240.38 118.91 239.19 121.05 248.64 136.74 249.83 134.6 240.38 118.91" style="fill: rgb(154, 74, 77); transform-origin: 244.51px 127.825px;" id="elpu89exb2o8" class="animable"></polygon><g id="elvk8ktajose"><polygon points="240.38 118.91 239.19 121.05 248.64 136.74 249.83 134.6 240.38 118.91" style="opacity: 0.1; transform-origin: 244.51px 127.825px;" class="animable"></polygon></g><polygon points="249.83 134.6 248.64 136.74 288.89 136 290.07 133.86 249.83 134.6" style="fill: rgb(154, 74, 77); transform-origin: 269.355px 135.3px;" id="elf1xg00n4zut" class="animable"></polygon><path d="M255.45,124.78c-.55.77-1.54.4-2.19,0a4.22,4.22,0,0,1-1.13-1.06c-.23-.32-.55-.78-.31-1.18a.89.89,0,0,1,1.07-.28,2.2,2.2,0,0,1,1.06,1.24c.09.18-.1.33-.22.15a2.46,2.46,0,0,0-.56-.64c-.16-.12-1-.45-.93,0,0,.1.2.29.27.37a3.24,3.24,0,0,0,.36.38,3.91,3.91,0,0,0,.85.59c.48.24,1.54.46,1.46-.41a2.76,2.76,0,0,0-1.09-1.63c-.81-.68-2.57-1.4-3.36-.29-.39.56.07,1.2.4,1.67a7.07,7.07,0,0,0,1.48,1.56,5.11,5.11,0,0,0,1.86,1,2.42,2.42,0,0,0,1,.09c.26,0,.89-.14.9-.45,0-.06.09,0,.09,0,.13.85-1.17,1-1.74,1a5,5,0,0,1-2.45-1.15c-1.15-.92-3.19-3.06-1.62-4.48,1.37-1.24,3.52,0,4.43,1.2A2.05,2.05,0,0,1,255.45,124.78Z" style="fill: rgb(154, 74, 77); transform-origin: 253.274px 123.818px;" id="eldkwx1lhpfvj" class="animable"></path><path d="M268.86,124.53c-.54.77-1.54.41-2.18,0a4.12,4.12,0,0,1-1.13-1.07c-.24-.32-.56-.77-.31-1.18a.89.89,0,0,1,1.07-.28,2.3,2.3,0,0,1,1.06,1.25c.09.18-.1.32-.22.14a2.86,2.86,0,0,0-.56-.64c-.16-.12-1-.45-.93,0,0,.11.2.29.27.38s.23.25.35.37a3.56,3.56,0,0,0,.86.59c.48.24,1.53.46,1.46-.41a2.79,2.79,0,0,0-1.09-1.63c-.82-.68-2.58-1.4-3.36-.28-.39.56.07,1.19.4,1.66A7.26,7.26,0,0,0,266,125a5.38,5.38,0,0,0,1.86,1,2.66,2.66,0,0,0,1,.08c.25,0,.89-.14.9-.45,0-.06.08,0,.09,0,.13.86-1.17,1-1.74,1a5,5,0,0,1-2.45-1.15c-1.16-.92-3.19-3.06-1.63-4.48,1.37-1.23,3.53,0,4.44,1.2A2,2,0,0,1,268.86,124.53Z" style="fill: rgb(154, 74, 77); transform-origin: 266.661px 123.56px;" id="elhu26lyh0cn" class="animable"></path><path d="M282.28,124.29c-.54.76-1.54.4-2.19,0a4.25,4.25,0,0,1-1.13-1.07c-.23-.32-.55-.77-.31-1.18a.91.91,0,0,1,1.08-.27,2.19,2.19,0,0,1,1,1.24c.09.18-.09.32-.22.14a2.83,2.83,0,0,0-.56-.64c-.16-.12-1-.44-.93,0,0,.11.21.29.28.38a2.44,2.44,0,0,0,.35.37,3.32,3.32,0,0,0,.85.59c.49.24,1.54.46,1.47-.41a2.89,2.89,0,0,0-1.1-1.63c-.81-.68-2.57-1.4-3.35-.28-.4.56.07,1.19.4,1.66a7.07,7.07,0,0,0,1.47,1.57,5.19,5.19,0,0,0,1.86,1,2.65,2.65,0,0,0,1,.08c.25,0,.89-.13.9-.45,0-.05.08,0,.08,0,.14.85-1.17,1-1.74.95a5,5,0,0,1-2.45-1.15c-1.15-.91-3.19-3-1.62-4.47,1.37-1.24,3.52,0,4.43,1.19A2.07,2.07,0,0,1,282.28,124.29Z" style="fill: rgb(154, 74, 77); transform-origin: 280.044px 123.277px;" id="el814qv2enzie" class="animable"></path></g><path d="M336.76,178.57c-3.76-12.33-11-35.78-11.55-37.78-.92-3.49-1.93-7.92-2.9-11.4-.39-1.74-.84-3.47-1.19-5.22-.31-1.58-.9-3.06-1.35-4.62q-1.51-5.28-3.51-10.41A40.12,40.12,0,0,0,308,95.65a42.42,42.42,0,0,0-3.73-3.48c-.74-.61-2.09-2.3-3.19-1.58a1.57,1.57,0,0,0-.55.8c-.49,1.46.18,3,1,4.36S303.2,98,304,99.2a26.53,26.53,0,0,1,2.15,3.91c.23.54,1.59,4,.55,3.94-.58-.06-1.18-1.32-1.45-1.75-.45-.69-.86-1.42-1.3-2.11-.78-1.22-1.62-2.38-2.48-3.54q-2.77-3.75-5.85-7.25a16.18,16.18,0,0,0-2.85-2.7c-.81-.54-2.49-1.58-3.18-.43a2.48,2.48,0,0,0-.31,1.13,8.28,8.28,0,0,0,1.25,4.67A30.11,30.11,0,0,0,293.43,99a36.9,36.9,0,0,1,4.07,6.06,17.74,17.74,0,0,1,1.41,3.26c.29,1-.82.81-1.38.28-2.46-2.33-4.27-5.31-6.47-7.89a80.3,80.3,0,0,0-7.46-7.64c-.55-.5-1.26-1-2-.8A1.9,1.9,0,0,0,280.57,94,8.27,8.27,0,0,0,282,99.17a30.69,30.69,0,0,0,3.45,4.2c.66.74,6.14,7.24,4.93,7.9a.93.93,0,0,1-.41.06,16.91,16.91,0,0,1-3.53-1,6.91,6.91,0,0,0-3.85.09,11.26,11.26,0,0,0-3.88,1.66,14.27,14.27,0,0,0-2,1.86c-1.39,1.51-2.78,3-4.16,4.52a2.74,2.74,0,0,0-.89,1.53,1.74,1.74,0,0,0,1.06,1.59c3.43,1.61,7.43-2.87,10.29-4.08a1.83,1.83,0,0,1,.86-.19,1.91,1.91,0,0,1,.69.25c3.46,1.78,7.35,4,7.74,8.27l6.6,18.73c1.44,1,3.5,2.15,4.44,3.67,1.83,2.94,2.89,19.58,3.38,30-6.67-4.13-16.84-10.43-25.41-15.72-20.85-12.89-25.06-15.65-39.64-15.32,0,0,.63,31.35,18,47.8,0,0,42.16,19.64,56.45,25.19,15.27,5.93,22,3.47,24.15-10.6C341.42,202.56,340.52,190.91,336.76,178.57Z" style="fill: rgb(255, 189, 167); transform-origin: 291.204px 155.972px;" id="elkmtss1u271c" class="animable"></path><path d="M297.3,126s10.44-.52,15.83,12.12c0,0-.07-8.48-6-11.59S297.3,126,297.3,126Z" style="fill: rgb(240, 153, 122); transform-origin: 305.215px 131.558px;" id="ela9eljqfa9z9" class="animable"></path><path d="M306.78,178.21s-.75,12.91,5.47,24c0,0-8.9-6-8.61-25.94Z" style="fill: rgb(240, 153, 122); transform-origin: 307.942px 189.24px;" id="elwo6kwczthzc" class="animable"></path><g id="freepik--Chest--inject-34" class="animable" style="transform-origin: 220.734px 225.2px;"><path d="M283.8,269c-1.52,13.34-20.63,25.29-40.32,30.84-19,5.35-66.21,4.46-84.25-4.17,2-18.07,6.06-21.77,7.32-39.29,1.32-18.14-5.27-29.12-8.13-51.47-2.22-17.32.56-38.51,7.24-46.89l20-6.47s10.67,10.42,31.28,7.42c15.21-2.2,10.42-11.5,10.42-11.5l14.35-.24c12.06,5.08,29.65,22.27,36.76,38.18,6.38,14.27,6.18,29.11-7.6,42.61l.53,19.1S280.24,258,283.8,269Z" style="fill: rgb(240, 240, 240); transform-origin: 220.734px 225.2px;" id="elg3bikmlbj" class="animable"></path><path d="M232.75,226.3s-9.13,11.45-27.46,9.55c-18.92-2-22.73-17.6-22.73-17.6s-.64,20.53,22,22.88C225.37,243.3,232.75,226.3,232.75,226.3Z" style="fill: rgb(224, 224, 224); transform-origin: 207.654px 229.786px;" id="elkwr64u38dbm" class="animable"></path></g><g id="freepik--Arm--inject-34" class="animable" style="transform-origin: 187.806px 215.946px;"><path d="M165.65,158c-15.31,4.63-19.67,10.15-25.33,25.9s-18.16,58.8-20.72,80c-2.12,17.51,38.2-16,38.2-16s11.64-34.09,15.24-45.59S179.33,162.82,165.65,158Z" style="fill: rgb(255, 189, 167); transform-origin: 147.735px 213.482px;" id="el5uljsso9db2" class="animable"></path><path d="M164,229.79c-8.74,2.73-23.84,4.47-29.89,13.26l26.75-4C162.21,234.93,162.19,235,164,229.79Z" style="fill: rgb(240, 153, 122); transform-origin: 149.055px 236.42px;" id="el4z1zur2powb" class="animable"></path><path d="M212.43,236c3.43-.88,13.88-13.13,15.42-16.26a49.46,49.46,0,0,1,6.43-9.54c2.4-2.8,3.43-6.26,2.43-7.7s-2.18-2.14-4.08-.47a29.07,29.07,0,0,1-8.9,5.92c-5.06,2.27-10.38,4.53-12.35,11.07S212.43,236,212.43,236Z" style="fill: rgb(240, 153, 122); transform-origin: 223.901px 218.529px;" id="el755uy1w4nxi" class="animable"></path><g id="freepik--chocolate-bar--inject-34" class="animable" style="transform-origin: 235.595px 203.02px;"><polygon points="245.62 220.11 254.26 215.5 253.77 230.19 245.12 234.81 245.62 220.11" style="fill: rgb(177, 102, 104); transform-origin: 249.69px 225.155px;" id="eltk6r3tgfrx" class="animable"></polygon><polygon points="241.46 217.52 245.62 220.11 245.12 234.81 240.84 235.83 241.46 217.52" style="fill: rgb(154, 74, 77); transform-origin: 243.23px 226.675px;" id="elpxcydyp2odg" class="animable"></polygon><g id="eljvt6i1hq55f"><polygon points="241.46 217.52 245.62 220.11 245.12 234.81 240.84 235.83 241.46 217.52" style="opacity: 0.1; transform-origin: 243.23px 226.675px;" class="animable"></polygon></g><polygon points="241.46 217.52 245.62 220.11 254.26 215.5 253.3 211.21 241.46 217.52" style="fill: rgb(154, 74, 77); transform-origin: 247.86px 215.66px;" id="el25bj2eqpx5y" class="animable"></polygon><polygon points="233.78 226.43 242.42 221.82 241.93 236.51 233.28 241.12 233.78 226.43" style="fill: rgb(177, 102, 104); transform-origin: 237.85px 231.47px;" id="el38d40bvff7g" class="animable"></polygon><polygon points="229.62 223.84 233.78 226.43 233.28 241.12 229 242.15 229.62 223.84" style="fill: rgb(154, 74, 77); transform-origin: 231.39px 232.995px;" id="elymiiup92xcp" class="animable"></polygon><g id="ellgaudzmkgw"><polygon points="229.62 223.84 233.78 226.43 233.28 241.12 229 242.15 229.62 223.84" style="opacity: 0.1; transform-origin: 231.39px 232.995px;" class="animable"></polygon></g><polygon points="229.62 223.84 233.78 226.43 242.42 221.82 241.46 217.52 229.62 223.84" style="fill: rgb(154, 74, 77); transform-origin: 236.02px 221.975px;" id="elryhsdbkhot" class="animable"></polygon><polygon points="221.94 232.74 230.58 228.13 230.09 242.82 221.44 247.43 221.94 232.74" style="fill: rgb(177, 102, 104); transform-origin: 226.01px 237.78px;" id="elr7f5kxeohzr" class="animable"></polygon><polygon points="217.78 230.15 221.94 232.74 221.44 247.43 217.16 248.46 217.78 230.15" style="fill: rgb(154, 74, 77); transform-origin: 219.55px 239.305px;" id="eli4iob6w24e" class="animable"></polygon><g id="elxo3swm3lhej"><polygon points="217.78 230.15 221.94 232.74 221.44 247.43 217.16 248.46 217.78 230.15" style="opacity: 0.1; transform-origin: 219.55px 239.305px;" class="animable"></polygon></g><polygon points="217.78 230.15 221.94 232.74 230.58 228.13 229.62 223.84 217.78 230.15" style="fill: rgb(154, 74, 77); transform-origin: 224.18px 228.29px;" id="ellz9ae7m1i6" class="animable"></polygon><polygon points="246.23 201.81 254.88 197.19 254.38 211.89 245.74 216.5 246.23 201.81" style="fill: rgb(177, 102, 104); transform-origin: 250.31px 206.845px;" id="eljbe49q69a7" class="animable"></polygon><polygon points="242.07 199.22 246.23 201.81 245.74 216.5 241.46 217.52 242.07 199.22" style="fill: rgb(154, 74, 77); transform-origin: 243.845px 208.37px;" id="eleki9dk31mfm" class="animable"></polygon><g id="elcnr1bpr3zk"><polygon points="242.07 199.22 246.23 201.81 245.74 216.5 241.46 217.52 242.07 199.22" style="opacity: 0.1; transform-origin: 243.845px 208.37px;" class="animable"></polygon></g><polygon points="242.07 199.22 246.23 201.81 254.88 197.19 253.91 192.9 242.07 199.22" style="fill: rgb(154, 74, 77); transform-origin: 248.475px 197.355px;" id="elcuce3o67ph" class="animable"></polygon><polygon points="234.39 208.12 243.04 203.51 242.54 218.2 233.9 222.81 234.39 208.12" style="fill: rgb(177, 102, 104); transform-origin: 238.47px 213.16px;" id="elobbb7gp4yrh" class="animable"></polygon><polygon points="230.23 205.53 234.39 208.12 233.9 222.81 229.62 223.84 230.23 205.53" style="fill: rgb(154, 74, 77); transform-origin: 232.005px 214.685px;" id="el2slef4mcqri" class="animable"></polygon><g id="el8gacory2l6u"><polygon points="230.23 205.53 234.39 208.12 233.9 222.81 229.62 223.84 230.23 205.53" style="opacity: 0.1; transform-origin: 232.005px 214.685px;" class="animable"></polygon></g><polygon points="230.23 205.53 234.39 208.12 243.04 203.51 242.07 199.22 230.23 205.53" style="fill: rgb(154, 74, 77); transform-origin: 236.635px 203.67px;" id="ely9mt0c2giir" class="animable"></polygon><polygon points="222.55 214.44 231.2 209.82 230.7 224.51 222.06 229.13 222.55 214.44" style="fill: rgb(177, 102, 104); transform-origin: 226.63px 219.475px;" id="el6b3548f5ujb" class="animable"></polygon><polygon points="218.39 211.84 222.55 214.44 222.06 229.13 217.78 230.15 218.39 211.84" style="fill: rgb(154, 74, 77); transform-origin: 220.165px 220.995px;" id="elyng5nvv3erp" class="animable"></polygon><g id="elubujso3a48o"><polygon points="218.39 211.84 222.55 214.44 222.06 229.13 217.78 230.15 218.39 211.84" style="opacity: 0.1; transform-origin: 220.165px 220.995px;" class="animable"></polygon></g><polygon points="218.39 211.84 222.55 214.44 231.2 209.82 230.23 205.53 218.39 211.84" style="fill: rgb(154, 74, 77); transform-origin: 224.795px 209.985px;" id="elrehkyecayrc" class="animable"></polygon><polygon points="246.85 183.5 255.49 178.89 255 193.58 246.35 198.19 246.85 183.5" style="fill: rgb(177, 102, 104); transform-origin: 250.92px 188.54px;" id="elmmtlsgvl6a" class="animable"></polygon><polygon points="242.69 180.91 246.85 183.5 246.35 198.19 242.07 199.22 242.69 180.91" style="fill: rgb(154, 74, 77); transform-origin: 244.46px 190.065px;" id="elzbz8t2ssl2g" class="animable"></polygon><g id="ely4pbrgoqhj"><polygon points="242.69 180.91 246.85 183.5 246.35 198.19 242.07 199.22 242.69 180.91" style="opacity: 0.1; transform-origin: 244.46px 190.065px;" class="animable"></polygon></g><polygon points="242.69 180.91 246.85 183.5 255.49 178.89 254.53 174.59 242.69 180.91" style="fill: rgb(154, 74, 77); transform-origin: 249.09px 179.045px;" id="elzowt6k919en" class="animable"></polygon><polygon points="235.01 189.81 243.66 185.2 243.16 199.89 234.51 204.5 235.01 189.81" style="fill: rgb(177, 102, 104); transform-origin: 239.085px 194.85px;" id="el0z93c4y56fh" class="animable"></polygon><polygon points="230.85 187.22 235.01 189.81 234.51 204.5 230.23 205.53 230.85 187.22" style="fill: rgb(154, 74, 77); transform-origin: 232.62px 196.375px;" id="elce5tw7y1dds" class="animable"></polygon><g id="elr1v0n7y9lc"><polygon points="230.85 187.22 235.01 189.81 234.51 204.5 230.23 205.53 230.85 187.22" style="opacity: 0.1; transform-origin: 232.62px 196.375px;" class="animable"></polygon></g><polygon points="230.85 187.22 235.01 189.81 243.66 185.2 242.69 180.91 230.85 187.22" style="fill: rgb(154, 74, 77); transform-origin: 237.255px 185.36px;" id="el42145t0m4g2" class="animable"></polygon><polygon points="223.17 196.13 231.81 191.52 231.32 206.21 222.67 210.82 223.17 196.13" style="fill: rgb(177, 102, 104); transform-origin: 227.24px 201.17px;" id="elfi3cx4x4if" class="animable"></polygon><polygon points="219.01 193.54 223.17 196.13 222.67 210.82 218.39 211.84 219.01 193.54" style="fill: rgb(154, 74, 77); transform-origin: 220.78px 202.69px;" id="elujd7b5iuzqm" class="animable"></polygon><g id="eln6aex44l3f"><polygon points="219.01 193.54 223.17 196.13 222.67 210.82 218.39 211.84 219.01 193.54" style="opacity: 0.1; transform-origin: 220.78px 202.69px;" class="animable"></polygon></g><polygon points="219.01 193.54 223.17 196.13 231.81 191.52 230.85 187.22 219.01 193.54" style="fill: rgb(154, 74, 77); transform-origin: 225.41px 191.675px;" id="el3llu4m1u6y6" class="animable"></polygon><polygon points="247.46 165.19 256.11 160.58 255.62 175.27 246.97 179.88 247.46 165.19" style="fill: rgb(177, 102, 104); transform-origin: 251.54px 170.23px;" id="elfpyo1r5rilo" class="animable"></polygon><polygon points="243.31 162.6 247.46 165.19 246.97 179.88 242.69 180.91 243.31 162.6" style="fill: rgb(154, 74, 77); transform-origin: 245.075px 171.755px;" id="el0ajsb7qjkust" class="animable"></polygon><g id="elt9qy1j3e79"><polygon points="243.31 162.6 247.46 165.19 246.97 179.88 242.69 180.91 243.31 162.6" style="opacity: 0.1; transform-origin: 245.075px 171.755px;" class="animable"></polygon></g><polygon points="243.31 162.6 247.46 165.19 256.11 160.58 255.14 156.28 243.31 162.6" style="fill: rgb(154, 74, 77); transform-origin: 249.71px 160.735px;" id="elt7j2h24mmp8" class="animable"></polygon><polygon points="235.63 171.5 244.27 166.89 243.78 181.58 235.13 186.2 235.63 171.5" style="fill: rgb(177, 102, 104); transform-origin: 239.7px 176.545px;" id="eley7pm50q9io" class="animable"></polygon><polygon points="231.47 168.91 235.63 171.5 235.13 186.2 230.85 187.22 231.47 168.91" style="fill: rgb(154, 74, 77); transform-origin: 233.24px 178.065px;" id="el0l8q6di8fjc" class="animable"></polygon><g id="el9hymow10glc"><polygon points="231.47 168.91 235.63 171.5 235.13 186.2 230.85 187.22 231.47 168.91" style="opacity: 0.1; transform-origin: 233.24px 178.065px;" class="animable"></polygon></g><polygon points="231.47 168.91 235.63 171.5 244.27 166.89 243.31 162.6 231.47 168.91" style="fill: rgb(154, 74, 77); transform-origin: 237.87px 167.05px;" id="elrhy0xms4xs" class="animable"></polygon><polygon points="223.78 177.82 232.43 173.21 231.94 187.9 223.29 192.51 223.78 177.82" style="fill: rgb(177, 102, 104); transform-origin: 227.86px 182.86px;" id="elkr4sbjpgkhk" class="animable"></polygon><polygon points="219.63 175.23 223.78 177.82 223.29 192.51 219.01 193.54 219.63 175.23" style="fill: rgb(154, 74, 77); transform-origin: 221.395px 184.385px;" id="el79zzumi3kdj" class="animable"></polygon><g id="elrxdnve8c9gd"><polygon points="219.63 175.23 223.78 177.82 223.29 192.51 219.01 193.54 219.63 175.23" style="opacity: 0.1; transform-origin: 221.395px 184.385px;" class="animable"></polygon></g><polygon points="219.63 175.23 223.78 177.82 232.43 173.21 231.47 168.91 219.63 175.23" style="fill: rgb(154, 74, 77); transform-origin: 226.03px 173.365px;" id="elpaf0fqyqgsg" class="animable"></polygon><polygon points="217.16 248.46 215.08 247.16 217.55 173.93 219.63 175.23 217.16 248.46" style="fill: rgb(154, 74, 77); transform-origin: 217.355px 211.195px;" id="elqpuz4voacn" class="animable"></polygon><g id="elb2yq88ec2eg"><polygon points="217.16 248.46 215.08 247.16 217.55 173.93 219.63 175.23 217.16 248.46" style="opacity: 0.1; transform-origin: 217.355px 211.195px;" class="animable"></polygon></g><polygon points="219.63 175.23 217.54 173.93 253.06 154.99 255.14 156.28 219.63 175.23" style="fill: rgb(154, 74, 77); transform-origin: 236.34px 165.11px;" id="eltvfq86qh5fd" class="animable"></polygon><path d="M253,168.44c-.84-.4-1.54.4-1.9,1.07a4.13,4.13,0,0,0-.47,1.48c-.05.4-.11.95.3,1.19a.9.9,0,0,0,1.07-.29,2.17,2.17,0,0,0,.32-1.6c0-.2-.24-.23-.26,0a2.63,2.63,0,0,1-.18.83c-.08.18-.63.86-.8.47a1.44,1.44,0,0,1,.05-.46,4.07,4.07,0,0,1,.13-.5,3.51,3.51,0,0,1,.46-.93c.3-.45,1.12-1.15,1.48-.36a2.83,2.83,0,0,1-.16,2c-.38,1-1.57,2.48-2.8,1.88-.61-.3-.52-1.08-.46-1.65a7.16,7.16,0,0,1,.53-2.08,5.09,5.09,0,0,1,1.13-1.79,2.53,2.53,0,0,1,.84-.56c.24-.09.84-.32,1-.05,0,.05.08,0,.07-.06-.3-.81-1.52-.32-2,0a5,5,0,0,0-1.58,2.2c-.56,1.36-1.3,4.22.76,4.7,1.8.41,3.09-1.7,3.29-3.21A2,2,0,0,0,253,168.44Z" style="fill: rgb(154, 74, 77); transform-origin: 251.54px 170.285px;" id="eldcunfe4gr1u" class="animable"></path><path d="M241.15,174.76c-.84-.41-1.54.39-1.9,1.07a4,4,0,0,0-.47,1.48c-.05.39-.11.95.3,1.18a.89.89,0,0,0,1.07-.28,2.19,2.19,0,0,0,.32-1.6c0-.2-.24-.23-.26,0a2.63,2.63,0,0,1-.18.83c-.08.18-.63.87-.8.47a1.24,1.24,0,0,1,.06-.46,3,3,0,0,1,.12-.5,3.66,3.66,0,0,1,.46-.93c.31-.44,1.12-1.15,1.48-.35a2.81,2.81,0,0,1-.16,1.95c-.38,1-1.57,2.48-2.8,1.89-.61-.3-.52-1.08-.46-1.65a7.22,7.22,0,0,1,.53-2.09,5,5,0,0,1,1.13-1.78,2.41,2.41,0,0,1,.84-.57c.24-.09.84-.31,1,0,0,0,.07,0,.06-.07-.3-.81-1.52-.31-2,0a5,5,0,0,0-1.58,2.19c-.56,1.36-1.29,4.22.76,4.7,1.8.42,3.09-1.7,3.29-3.2A2,2,0,0,0,241.15,174.76Z" style="fill: rgb(154, 74, 77); transform-origin: 239.683px 176.602px;" id="elith9awg3mwe" class="animable"></path><path d="M229.31,181.07c-.84-.4-1.54.4-1.9,1.07a4.07,4.07,0,0,0-.47,1.48c-.05.4-.11.95.3,1.18a.88.88,0,0,0,1.07-.28,2.17,2.17,0,0,0,.32-1.6c0-.2-.24-.23-.26,0a2.69,2.69,0,0,1-.18.83c-.08.18-.63.86-.8.47a1.44,1.44,0,0,1,.05-.46,4.07,4.07,0,0,1,.13-.5,3.73,3.73,0,0,1,.46-.94c.31-.44,1.12-1.14,1.48-.35a2.83,2.83,0,0,1-.16,2c-.38,1-1.57,2.47-2.8,1.88-.61-.3-.52-1.08-.46-1.65a7.08,7.08,0,0,1,.53-2.08,5,5,0,0,1,1.13-1.79,2.38,2.38,0,0,1,.84-.56c.24-.09.84-.32,1-.05,0,.05.08,0,.07-.06-.3-.81-1.52-.32-2,0a5,5,0,0,0-1.58,2.2c-.56,1.36-1.3,4.22.76,4.7,1.8.41,3.09-1.71,3.29-3.21A2,2,0,0,0,229.31,181.07Z" style="fill: rgb(154, 74, 77); transform-origin: 227.85px 182.915px;" id="elizbpb4fqeic" class="animable"></path><path d="M252.38,186.75c-.85-.4-1.54.4-1.91,1.07a4.07,4.07,0,0,0-.47,1.48c-.05.4-.11.95.3,1.18a.89.89,0,0,0,1.08-.28,2.27,2.27,0,0,0,.32-1.6c0-.2-.25-.23-.27,0a3,3,0,0,1-.17.83c-.08.18-.64.86-.8.47-.05-.1,0-.36,0-.47a4.37,4.37,0,0,1,.12-.49,4.1,4.1,0,0,1,.46-.94c.31-.44,1.12-1.14,1.48-.35a2.75,2.75,0,0,1-.16,2c-.38,1-1.57,2.48-2.79,1.89-.62-.3-.52-1.08-.47-1.65a7.4,7.4,0,0,1,.53-2.08,5.14,5.14,0,0,1,1.13-1.79,2.66,2.66,0,0,1,.84-.57c.24-.08.85-.31,1,0,0,.05.07,0,.06-.06-.3-.81-1.52-.32-2,0a5,5,0,0,0-1.58,2.2c-.56,1.36-1.29,4.22.77,4.69,1.79.42,3.08-1.7,3.29-3.2A2,2,0,0,0,252.38,186.75Z" style="fill: rgb(154, 74, 77); transform-origin: 250.87px 188.641px;" id="elkm1iz7x0eb" class="animable"></path><path d="M240.54,193.07c-.85-.41-1.54.39-1.91,1.06a4.32,4.32,0,0,0-.47,1.49c0,.39-.11.94.3,1.18a.92.92,0,0,0,1.08-.28,2.29,2.29,0,0,0,.32-1.6c0-.2-.25-.24-.27,0a2.61,2.61,0,0,1-.17.83c-.08.18-.63.86-.8.47-.05-.1,0-.35,0-.46a3.48,3.48,0,0,1,.58-1.43c.31-.45,1.12-1.15,1.48-.36a2.78,2.78,0,0,1-.16,2c-.38,1-1.56,2.48-2.79,1.88-.62-.29-.52-1.08-.47-1.65a7.58,7.58,0,0,1,.53-2.08,5.49,5.49,0,0,1,1.13-1.79,2.63,2.63,0,0,1,.84-.56c.24-.09.85-.32,1,0,0,0,.07,0,.06-.07-.3-.81-1.51-.31-2,0a4.88,4.88,0,0,0-1.58,2.19c-.57,1.36-1.3,4.22.76,4.7,1.8.42,3.08-1.7,3.29-3.2A2,2,0,0,0,240.54,193.07Z" style="fill: rgb(154, 74, 77); transform-origin: 239.02px 194.952px;" id="elw5k2mfan389" class="animable"></path><path d="M228.7,199.38c-.85-.4-1.54.4-1.91,1.07a4.07,4.07,0,0,0-.47,1.48c0,.39-.11.95.3,1.18a.9.9,0,0,0,1.08-.28,2.27,2.27,0,0,0,.32-1.6c0-.2-.25-.23-.27,0a2.85,2.85,0,0,1-.17.83c-.08.19-.64.87-.8.48-.05-.1,0-.36.05-.47a4.54,4.54,0,0,1,.12-.5,4,4,0,0,1,.46-.93c.31-.44,1.12-1.15,1.48-.35a2.75,2.75,0,0,1-.16,1.95c-.38,1-1.57,2.48-2.79,1.89-.62-.3-.52-1.08-.47-1.65a7.4,7.4,0,0,1,.53-2.08,5.14,5.14,0,0,1,1.13-1.79A2.5,2.5,0,0,1,228,198c.24-.09.85-.31,1,0,0,.05.07,0,.06-.07-.3-.8-1.52-.31-2,0a5,5,0,0,0-1.58,2.2c-.56,1.36-1.29,4.22.77,4.69,1.79.42,3.08-1.7,3.29-3.2A2,2,0,0,0,228.7,199.38Z" style="fill: rgb(154, 74, 77); transform-origin: 227.251px 201.185px;" id="eliat3zn0jy7h" class="animable"></path><path d="M251.76,205.06c-.85-.41-1.54.4-1.9,1.07a4.07,4.07,0,0,0-.47,1.48c0,.39-.11.95.3,1.18a.89.89,0,0,0,1.07-.28,2.17,2.17,0,0,0,.32-1.6c0-.2-.24-.23-.26,0a2.86,2.86,0,0,1-.18.83c-.08.19-.63.87-.8.47a1.25,1.25,0,0,1,0-.46,3.07,3.07,0,0,1,.13-.5,3.66,3.66,0,0,1,.46-.93c.3-.44,1.12-1.15,1.47-.35a2.75,2.75,0,0,1-.16,2c-.38,1-1.56,2.48-2.79,1.89-.62-.3-.52-1.08-.46-1.65a7.22,7.22,0,0,1,.53-2.09,5,5,0,0,1,1.13-1.78,2.41,2.41,0,0,1,.84-.57c.24-.09.84-.31,1,0,0,0,.08,0,.06-.07-.29-.81-1.51-.31-2,0a5,5,0,0,0-1.58,2.19c-.56,1.37-1.3,4.23.76,4.7,1.8.42,3.08-1.7,3.29-3.2A2,2,0,0,0,251.76,205.06Z" style="fill: rgb(154, 74, 77); transform-origin: 250.252px 206.952px;" id="elinv01zljad" class="animable"></path><path d="M239.92,211.37c-.85-.4-1.54.4-1.9,1.07a4.13,4.13,0,0,0-.47,1.48c-.05.4-.11,1,.3,1.18a.88.88,0,0,0,1.07-.28,2.17,2.17,0,0,0,.32-1.6c0-.2-.24-.23-.26,0a3,3,0,0,1-.18.83c-.08.18-.63.86-.8.47a1.21,1.21,0,0,1,.05-.46,4.07,4.07,0,0,1,.13-.5,3.51,3.51,0,0,1,.46-.93c.3-.45,1.12-1.15,1.48-.36a2.89,2.89,0,0,1-.16,2c-.39,1-1.57,2.48-2.8,1.88-.62-.3-.52-1.08-.46-1.65a7.16,7.16,0,0,1,.53-2.08,5.09,5.09,0,0,1,1.13-1.79,2.53,2.53,0,0,1,.84-.56c.24-.09.84-.32,1-.05,0,.05.08,0,.07-.06-.3-.81-1.52-.32-2,0a5,5,0,0,0-1.58,2.2c-.56,1.36-1.3,4.22.76,4.7,1.8.41,3.08-1.71,3.29-3.21A2,2,0,0,0,239.92,211.37Z" style="fill: rgb(154, 74, 77); transform-origin: 238.46px 213.215px;" id="elncvk9bgl7jr" class="animable"></path><path d="M228.08,217.69c-.85-.41-1.54.39-1.9,1.07a4,4,0,0,0-.47,1.48c-.05.39-.11.95.3,1.18a.89.89,0,0,0,1.07-.28,2.19,2.19,0,0,0,.32-1.6c0-.2-.24-.23-.26,0a2.93,2.93,0,0,1-.18.83c-.08.18-.63.86-.8.47a1.23,1.23,0,0,1,.05-.46,3.07,3.07,0,0,1,.13-.5,3.66,3.66,0,0,1,.46-.93c.3-.45,1.12-1.15,1.47-.35a2.75,2.75,0,0,1-.16,1.95c-.38,1-1.56,2.48-2.79,1.89-.62-.3-.52-1.08-.46-1.65a7.22,7.22,0,0,1,.53-2.09,5,5,0,0,1,1.13-1.78,2.41,2.41,0,0,1,.84-.57c.24-.09.84-.31,1,0,0,0,.08,0,.06-.07-.29-.81-1.51-.31-2,0a5,5,0,0,0-1.58,2.19c-.56,1.36-1.3,4.22.76,4.7,1.8.42,3.08-1.7,3.29-3.2A2,2,0,0,0,228.08,217.69Z" style="fill: rgb(154, 74, 77); transform-origin: 226.611px 219.532px;" id="el46o7aht5vj" class="animable"></path><polygon points="215.08 247.16 221.32 251.05 223.05 199.63 216.81 195.75 215.08 247.16" style="fill: rgb(0, 255, 136); transform-origin: 219.065px 223.4px;" id="el9hriylkdgbb" class="animable"></polygon><g id="eljevd4j13ak"><path d="M221.32,251.05l.25-7.35s-2.73.31-4.08-5-.22-34.52-.22-34.52l5.31,9.48.48-14.23-6.24-3.89-1.74,51.65Z" style="opacity: 0.1; transform-origin: 219.07px 223.295px;" class="animable"></path></g><polygon points="221.32 251.05 253.74 233.76 254.65 206.82 223.05 199.63 221.32 251.05" style="fill: rgb(0, 255, 136); transform-origin: 237.985px 225.34px;" id="el0qs3azzbm5m" class="animable"></polygon><g id="elolwzzuo69ys"><polygon points="221.32 251.05 253.74 233.76 254.65 206.82 223.05 199.63 221.32 251.05" style="fill: rgb(255, 255, 255); opacity: 0.2; transform-origin: 237.985px 225.34px;" class="animable"></polygon></g><path d="M240.25,203.66a.82.82,0,0,1-.08.35.36.36,0,0,1-.15.21.09.09,0,0,1-.13,0l-.11-.15a.53.53,0,0,0-.14-.12s-.12,0-.21,0a.81.81,0,0,0-.31.39,1.69,1.69,0,0,0-.14.61.67.67,0,0,0,.06.28.65.65,0,0,0,.17.2.41.41,0,0,0,.24.08.52.52,0,0,0,.27-.05,1.37,1.37,0,0,0,.35-.31,3.2,3.2,0,0,0,.33-.51,3.1,3.1,0,0,0,.24-.67,2.82,2.82,0,0,0,.07-.31l-.47-.11S240.25,203.62,240.25,203.66Z" style="fill: rgb(250, 250, 250); transform-origin: 239.845px 204.531px;" id="eli5vaeuga4y" class="animable"></path><path d="M237.92,203.43a2.06,2.06,0,0,0,1.09.34,2.2,2.2,0,0,0,1.11-.25l-2.81-.64c0,.27-.05.53-.06.75a5.28,5.28,0,0,0,.12,1.48,3.48,3.48,0,0,0,.37.91,1.28,1.28,0,0,0,.17.22l-.08.09a4.57,4.57,0,0,0-.67,1,5.64,5.64,0,0,0-.44,1.21,7.08,7.08,0,0,0-.18,1.26,2.84,2.84,0,0,0,.75,2.09l.15.12a1.85,1.85,0,0,0-.14.14,3.29,3.29,0,0,0-.47.68,3.85,3.85,0,0,0-.31.82,3.65,3.65,0,0,0-.13.84,2.45,2.45,0,0,0,.14,1,3,3,0,0,0,.36.72,2.17,2.17,0,0,0,.56.57,2.57,2.57,0,0,0-.89,1.16,4.56,4.56,0,0,0-.35,1.62,2.84,2.84,0,0,0,.75,2.09l.24.2-.12.15a6,6,0,0,0-.54,1,7,7,0,0,0-.36,1.12,5.39,5.39,0,0,0-.15,1.07,2.74,2.74,0,0,0,.21,1.27,3.06,3.06,0,0,0,.53.82l.34.28a4.52,4.52,0,0,0-.64,1A7.23,7.23,0,0,0,236,230a8.31,8.31,0,0,0-.2,1.52,5.08,5.08,0,0,0,.13,1.39,3.59,3.59,0,0,0,.36.91,2.11,2.11,0,0,0,.55.66l.12.06.1,0a.12.12,0,0,0,.1,0,.54.54,0,0,0,.2-.22,1.06,1.06,0,0,0,.09-.35.33.33,0,0,0,0-.15l-.06-.11-.09-.1a1.92,1.92,0,0,1-.17-.19,1.78,1.78,0,0,1-.38-.83,3.13,3.13,0,0,1-.06-.79,3.9,3.9,0,0,1,.35-1.45,2.09,2.09,0,0,1,.93-1c0,.12,0,.23,0,.33s-.05.34-.06.49a4.11,4.11,0,0,0,.17,1.5,1.54,1.54,0,0,0,.51.74,1,1,0,0,0,.64.19,1.35,1.35,0,0,0,.59-.15,1.84,1.84,0,0,0,.53-.46,3.76,3.76,0,0,0,.48-.72,6,6,0,0,0,.34-.9,3.84,3.84,0,0,0,.15-1,3.71,3.71,0,0,0-.19-1.32,2.62,2.62,0,0,0-.66-1.05,1.86,1.86,0,0,0-1.06-.51,2.28,2.28,0,0,0-1.4.33l-.07,0a1.37,1.37,0,0,1-.42-.29,1.6,1.6,0,0,1-.38-.49,1.41,1.41,0,0,1-.15-.72,2.12,2.12,0,0,1,.22-.88,1.27,1.27,0,0,1,.52-.59,3.47,3.47,0,0,1,.82-.3,7.09,7.09,0,0,1,.94-.17c.32,0,.65-.06,1-.07h.94l-.05,1.27a.35.35,0,0,0,.05.18.49.49,0,0,0,.12.13.51.51,0,0,0,.15.07.21.21,0,0,0,.14,0,.27.27,0,0,0,.13-.23l0-1.38.82,0a1,1,0,0,0,.43,0,.86.86,0,0,0,.24-.29,5.67,5.67,0,0,0,.27-.55,5.12,5.12,0,0,0,.25-.65,2.31,2.31,0,0,0,.11-.55.57.57,0,0,0-.06-.29.32.32,0,0,0-.18-.13,3.05,3.05,0,0,0-.78-.16c-.31,0-.64-.05-1-.06l0-.41a.32.32,0,0,0-.17-.32.29.29,0,0,0-.29,0,.26.26,0,0,0-.13.23l0,.55c-.34,0-.7,0-1.06.07l-1,.13a6.89,6.89,0,0,0-.89.2,3.44,3.44,0,0,0-.42.14,1.55,1.55,0,0,1-.39-.28,1.46,1.46,0,0,1-.38-.49,1.39,1.39,0,0,1-.15-.72,1,1,0,0,1,.12-.48.68.68,0,0,1,.28-.3,2,2,0,0,1,.77-.23,6.24,6.24,0,0,1,.85,0h.74a1,1,0,0,0,.49-.08.78.78,0,0,0,.3-.3,1.82,1.82,0,0,0,.21-.47,2.93,2.93,0,0,0,.13-.53c0-.18,0-.35.05-.5a5.05,5.05,0,0,0,.33-.66,6.42,6.42,0,0,0,.24-.82,5.17,5.17,0,0,0,.14-1.11,3,3,0,0,0-.3-1.49,2.54,2.54,0,0,0-.88-1,2.48,2.48,0,0,0-1.26-.41,2.54,2.54,0,0,0-1,.16,1.78,1.78,0,0,1-.38-.28,1.51,1.51,0,0,1-.39-.49,1.59,1.59,0,0,1-.15-.72,2.27,2.27,0,0,1,.34-1.13,2,2,0,0,1,.79-.76,3,3,0,0,1,.36-.17l.33-.12.34-.1a4.16,4.16,0,0,0,.69.71,10.42,10.42,0,0,0,.91.63c.33.19.67.37,1,.53a7,7,0,0,0,1,.35,4,4,0,0,0,.93.12,1.54,1.54,0,0,0,.72-.15,1.33,1.33,0,0,0,.38-.35,3.53,3.53,0,0,0,.38-.57,5.28,5.28,0,0,0,.29-.69,2.74,2.74,0,0,0,.13-.72,2.12,2.12,0,0,0-.32-1.27,2.68,2.68,0,0,0-.94-.89,4.36,4.36,0,0,0-1.37-.49,7.53,7.53,0,0,0-1.59-.13,7.19,7.19,0,0,0-1.65.22,7,7,0,0,0-1.51.57l0,0a2.22,2.22,0,0,1-.37-.38,2.32,2.32,0,0,1-.29-.59,2.17,2.17,0,0,1-.11-.89,1,1,0,0,1,0-.18A1.11,1.11,0,0,1,237.92,203.43Zm1.2,25.58a1.7,1.7,0,0,1,.68.16,1.4,1.4,0,0,1,.54.43,1.12,1.12,0,0,1,.2.72.56.56,0,0,1-.29.52.87.87,0,0,1-.52.07,1.2,1.2,0,0,1-.59-.24,1.5,1.5,0,0,1-.47-.59,2.05,2.05,0,0,1-.17-.94A1.35,1.35,0,0,1,239.12,229ZM238,214.1a2.27,2.27,0,0,1,.95-.26,2.49,2.49,0,0,1,1,.1,1.67,1.67,0,0,1,.74.44,1,1,0,0,1,.29.76,1.45,1.45,0,0,1-.16.6,1,1,0,0,1-.45.45,1.82,1.82,0,0,1-.91.2,3.17,3.17,0,0,1-1-.2,2.21,2.21,0,0,1-.78-.49.91.91,0,0,1-.29-.68A1,1,0,0,1,238,214.1Zm4.16-6.65a9,9,0,0,1,1.49.19,3.68,3.68,0,0,1,1.07.37c.27.16.41.34.4.53a.38.38,0,0,1-.2.35,1.33,1.33,0,0,1-.56.12,4.52,4.52,0,0,1-.8,0,6.38,6.38,0,0,1-.9-.2c-.31-.09-.6-.2-.89-.31A4.64,4.64,0,0,1,241,208a2.24,2.24,0,0,1-.52-.48A7.38,7.38,0,0,1,242.18,207.45Z" style="fill: rgb(250, 250, 250); transform-origin: 240.935px 218.715px;" id="el2h6ht0u1z26" class="animable"></path><g id="el17g4fege18h"><polygon points="223.56 247.45 225.13 200.93 227.21 202.22 225.81 243.85 249.59 231.17 250.41 206.68 252.49 207.98 251.66 232.46 223.56 247.45" style="fill: rgb(255, 255, 255); opacity: 0.7; transform-origin: 238.025px 224.19px;" class="animable"></polygon></g><g id="elsag6nqfm1r"><polygon points="222.58 213.63 254.53 210.5 254.65 206.82 223.05 199.63 222.58 213.63" style="opacity: 0.1; transform-origin: 238.615px 206.63px;" class="animable"></polygon></g><polygon points="216.81 195.75 216.65 200.64 222.66 211.37 254.58 208.8 254.65 206.82 223.05 199.63 216.81 195.75" style="fill: rgb(255, 255, 255); transform-origin: 235.65px 203.56px;" id="el04dbjed9yxyd" class="animable"></polygon><polygon points="222.66 211.37 223.05 199.63 216.81 195.75 216.65 200.64 222.66 211.37" style="fill: rgb(230, 230, 230); transform-origin: 219.85px 203.56px;" id="eliq75jzwcjb" class="animable"></polygon></g><path d="M218.27,214.92s7.35-.12,10.21.14,7.23,3.06,9.61,3.14c2.72.09,4.42-1.63,3.37-3.58s-7.51-5.82-9.76-6.69a27.1,27.1,0,0,0-9.32-1.77c-4.26-.13-9.13-.58-10.68.23-1.91,1-3.52,4.26-4.4,6s-4.32,7.7-6.29,11c-1.62,2.72-2.35,4.19-5.92,5.1-4.3,1.1-22.08,4.6-33.15,6.42-8.22,1.36-21.09,3.12-29.49,9.3S121,255,119.67,263.73c-.77,4.91,0,16,27.09,12.5,14.32-1.85,27.45-9.93,36.63-15.23,10.38-6,19.36-10.72,22.09-11.24,3.84-.72,8.15-2,10.74-5.42,3.36-4.39,5-6.38,10-7.54,2.73-.63,5-.73,7.34-1.76s3.74-2.57,3.56-3.9-1.89-1.27-1.89-1.27a2.87,2.87,0,0,0,.45-1.45,7.65,7.65,0,0,0-.11-2.09,6.48,6.48,0,0,0,2-.08c1.05-.21,1.81-2.13,1.92-3.17s-2.25-3.17-3.64-3.75-5.57-2.56-6.86-2.89S218.27,214.92,218.27,214.92Z" style="fill: rgb(255, 189, 167); transform-origin: 180.638px 241.41px;" id="ely82eftpx7os" class="animable"></path><path d="M237.51,226.25a2,2,0,0,0,1.17-1,5.89,5.89,0,0,1-2.94.12c-2.09-.28-7.61-2.2-11.07-2.34s-7.3.12-8.78-.6c1,.69,4.77,1.26,8.83,1.57a67.9,67.9,0,0,1,10.83,2.36A6.48,6.48,0,0,0,237.51,226.25Z" style="fill: rgb(240, 153, 122); transform-origin: 227.285px 224.41px;" id="elefszuynzn3" class="animable"></path><path d="M231.1,230.63c-1.29.18-7.17-.18-9.33-.25s-5.69-.5-5.69-.5a23.21,23.21,0,0,0,4.65,1c2,.15,7.91.5,10.17.32a7.84,7.84,0,0,0,4.31-1.37,2.87,2.87,0,0,0,.45-1.45C234.73,230,232.38,230.45,231.1,230.63Z" style="fill: rgb(240, 153, 122); transform-origin: 225.87px 229.815px;" id="elb87yrh8czzd" class="animable"></path></g></g></g></g><g id="freepik--Sparkles--inject-34" class="animable" style="transform-origin: 238.812px 100.963px;"><g id="freepik--Shine--inject-34"><path d="M378.73,121.48a.38.38,0,0,0-.35-.38l-8.4-.93a1.91,1.91,0,0,1-1.68-1.72l-1-10.71a.39.39,0,0,0-.78,0l-1,10.71a1.91,1.91,0,0,1-1.68,1.72l-8.4.93a.38.38,0,0,0-.35.38.4.4,0,0,0,.35.39l8.4.92a1.92,1.92,0,0,1,1.68,1.72l1,10.72a.39.39,0,0,0,.78,0l1-10.72a1.92,1.92,0,0,1,1.68-1.72l8.4-.92A.4.4,0,0,0,378.73,121.48Zm-8.83.55a2.66,2.66,0,0,0-2.37,2.41l-.58,6.44-.58-6.44A2.66,2.66,0,0,0,364,122l-4.92-.55,4.92-.54a2.68,2.68,0,0,0,2.37-2.42l.58-6.44.58,6.44a2.68,2.68,0,0,0,2.37,2.42l4.92.54ZM81.58,165.63l-6.2-.69a1.26,1.26,0,0,1-1.12-1.15l-.72-7.9a.42.42,0,0,0-.83,0L72,163.8a1.28,1.28,0,0,1-1.13,1.14l-6.19.69a.42.42,0,0,0,0,.83l6.19.69A1.27,1.27,0,0,1,72,168.29l.71,7.91a.42.42,0,0,0,.83,0l.72-7.91a1.25,1.25,0,0,1,1.12-1.14l6.2-.69a.42.42,0,0,0,0-.83Zm-6.14.7a2.27,2.27,0,0,0-2,2l-.31,3.5-.32-3.5a2.27,2.27,0,0,0-2-2l-2.6-.29,2.6-.28a2.27,2.27,0,0,0,2-2h0l.32-3.5.31,3.5a2.27,2.27,0,0,0,2,2L78,166Zm337.64-12.24-5.39-.59a1.22,1.22,0,0,1-1.08-1.11l-.62-6.87a.25.25,0,0,0-.25-.23.26.26,0,0,0-.25.23l-.62,6.87a1.22,1.22,0,0,1-1.08,1.11l-5.38.59a.25.25,0,0,0-.22.25.24.24,0,0,0,.22.24l5.38.6a1.21,1.21,0,0,1,1.08,1.1l.62,6.88a.26.26,0,0,0,.25.22.25.25,0,0,0,.25-.22l.62-6.88a1.21,1.21,0,0,1,1.08-1.1l5.39-.6a.25.25,0,0,0,.22-.24A.26.26,0,0,0,413.08,154.09Zm-5.45.6a1.73,1.73,0,0,0-1.52,1.55l-.37,4.13-.37-4.13a1.72,1.72,0,0,0-1.52-1.55l-3.16-.35,3.16-.35a1.72,1.72,0,0,0,1.52-1.55l.37-4.13.37,4.13a1.73,1.73,0,0,0,1.52,1.55l3.16.35ZM412.22,67l-9.68-1.07a2.18,2.18,0,0,1-1.94-2l-1.11-12.34a.46.46,0,0,0-.45-.41.45.45,0,0,0-.44.41l-1.12,12.34a2.18,2.18,0,0,1-1.94,2L385.87,67a.45.45,0,0,0,0,.89l9.67,1.07a2.19,2.19,0,0,1,1.94,2l1.12,12.35a.44.44,0,0,0,.44.4.45.45,0,0,0,.45-.4L400.6,70.9a2.19,2.19,0,0,1,1.94-2l9.68-1.07a.45.45,0,0,0,0-.89ZM402.44,68a3.09,3.09,0,0,0-2.73,2.79L399,78.24l-.67-7.42A3.09,3.09,0,0,0,395.64,68L390,67.41l5.67-.63A3.09,3.09,0,0,0,398.37,64l.67-7.42.67,7.42a3.09,3.09,0,0,0,2.73,2.79l5.67.63ZM338.9,71.35l-5.6-.62a1.15,1.15,0,0,1-1-1l-.64-7.15a.38.38,0,0,0-.38-.34.37.37,0,0,0-.37.34l-.65,7.15a1.14,1.14,0,0,1-1,1l-5.6.62a.38.38,0,0,0,0,.75l5.6.62a1.15,1.15,0,0,1,1,1l.65,7.14a.37.37,0,0,0,.37.35.38.38,0,0,0,.38-.35l.64-7.14a1.16,1.16,0,0,1,1-1l5.6-.62a.38.38,0,0,0,0-.75Zm-5.68.62a1.91,1.91,0,0,0-1.69,1.72l-.27,3-.26-3A1.92,1.92,0,0,0,329.31,72l-2.19-.24,2.19-.24A1.93,1.93,0,0,0,331,69.77h0l.26-3,.27,3a1.92,1.92,0,0,0,1.69,1.73l2.19.24ZM298.16,38.41l-8-.88a1.81,1.81,0,0,1-1.6-1.63l-.92-10.19a.37.37,0,0,0-.36-.34.38.38,0,0,0-.37.34L286,35.9a1.81,1.81,0,0,1-1.6,1.63l-8,.88a.37.37,0,0,0-.33.37.36.36,0,0,0,.33.36l8,.89a1.81,1.81,0,0,1,1.6,1.63l.92,10.19a.37.37,0,0,0,.37.33.36.36,0,0,0,.36-.33l.92-10.19a1.81,1.81,0,0,1,1.6-1.63l8-.89a.36.36,0,0,0,.33-.36A.37.37,0,0,0,298.16,38.41Zm-8.06.89a2.54,2.54,0,0,0-2.25,2.29l-.55,6.13-.56-6.13a2.53,2.53,0,0,0-2.25-2.29l-4.68-.52,4.68-.52a2.54,2.54,0,0,0,2.25-2.3l.56-6.12.55,6.12a2.55,2.55,0,0,0,2.25,2.3l4.67.52Zm-199,33.16-6.28-.69a1.31,1.31,0,0,1-1.14-1.17l-.72-8a.42.42,0,0,0-.42-.39.43.43,0,0,0-.43.39l-.72,8a1.29,1.29,0,0,1-1.14,1.17L74,72.46a.43.43,0,0,0-.38.42.44.44,0,0,0,.38.43l6.28.69a1.29,1.29,0,0,1,1.14,1.16l.72,8a.43.43,0,0,0,.43.39.42.42,0,0,0,.42-.39l.72-8A1.31,1.31,0,0,1,84.83,74l6.28-.69a.43.43,0,0,0,.38-.43A.42.42,0,0,0,91.11,72.46Zm-6,.74a2.47,2.47,0,0,0-2.19,2.23l-.34,3.84-.35-3.84A2.46,2.46,0,0,0,80,73.2l-2.85-.32L80,72.57a2.48,2.48,0,0,0,2.19-2.24h0l.35-3.84.34,3.84a2.49,2.49,0,0,0,2.19,2.24l2.85.31Zm34.84,53-9.68-1.07a2.2,2.2,0,0,1-1.94-2l-1.11-12.35a.46.46,0,0,0-.45-.41.45.45,0,0,0-.44.41l-1.12,12.35a2.2,2.2,0,0,1-1.94,2l-9.67,1.07a.44.44,0,0,0,0,.88l9.67,1.07a2.2,2.2,0,0,1,1.94,2l1.12,12.35a.45.45,0,0,0,.44.41.46.46,0,0,0,.45-.41l1.11-12.35a2.2,2.2,0,0,1,1.94-2l9.68-1.07a.44.44,0,0,0,0-.88Zm-9.78,1.07a3.09,3.09,0,0,0-2.73,2.78l-.67,7.42-.67-7.42a3.09,3.09,0,0,0-2.73-2.78l-5.67-.63,5.67-.63a3.09,3.09,0,0,0,2.73-2.78l.67-7.42.67,7.42a3.09,3.09,0,0,0,2.73,2.78l5.67.63Z" style="fill: rgb(0, 255, 136); opacity: 0.3; transform-origin: 238.812px 100.963px;" class="animable"></path></g></g><defs>     <filter id="active" height="200%">         <feMorphology in="SourceAlpha" result="DILATED" operator="dilate" radius="2"></feMorphology>                <feFlood flood-color="#32DFEC" flood-opacity="1" result="PINK"></feFlood>        <feComposite in="PINK" in2="DILATED" operator="in" result="OUTLINE"></feComposite>        <feMerge>            <feMergeNode in="OUTLINE"></feMergeNode>            <feMergeNode in="SourceGraphic"></feMergeNode>        </feMerge>    </filter>    <filter id="hover" height="200%">        <feMorphology in="SourceAlpha" result="DILATED" operator="dilate" radius="2"></feMorphology>                <feFlood flood-color="#ff0000" flood-opacity="0.5" result="PINK"></feFlood>        <feComposite in="PINK" in2="DILATED" operator="in" result="OUTLINE"></feComposite>        <feMerge>            <feMergeNode in="OUTLINE"></feMergeNode>            <feMergeNode in="SourceGraphic"></feMergeNode>        </feMerge>            <feColorMatrix type="matrix" values="0   0   0   0   0                0   1   0   0   0                0   0   0   0   0                0   0   0   1   0 "></feColorMatrix>    </filter></defs></svg>